<svg xmlns="http://www.w3.org/2000/svg" width="16" height="16"><g fill="none" fill-rule="evenodd"><path fill="#CDCDCD" fill-rule="nonzero" d="M14.756 7C15.436 7 16 6.436 16 5.756V2.244C16 1.564 15.436 1 14.756 1h-3.512C10.564 1 10 1.564 10 2.244v3.512C10 6.436 10.564 7 11.244 7h3.512zm0-1.067h-3.512c-.107 0-.177-.07-.177-.177V2.244c0-.107.07-.177.177-.177h3.512c.107 0 .177.07.177.177v3.512c0 .107-.07.177-.177.177zm-8 9.067C7.435 15 8 14.436 8 13.756v-3.512C8 9.564 7.436 9 6.755 9h-3.51C2.564 9 2 9.564 2 10.244v3.512C2 14.436 2.564 15 3.244 15h3.511zm0-1.067H3.243c-.107 0-.177-.07-.177-.177v-3.512c0-.107.07-.177.177-.177h3.511c.108 0 .178.07.178.177v3.512c0 .107-.07.177-.178.177zM4.755 7C5.436 7 6 6.436 6 5.756V2.244C6 1.564 5.436 1 4.756 1H1.244C.564 1 0 1.564 0 2.244v3.512C0 6.436.564 7 1.244 7h3.512zm0-1.067H1.244c-.107 0-.177-.07-.177-.177V2.244c0-.107.07-.177.177-.177h3.512c.107 0 .177.07.177.177v3.512c0 .107-.07.177-.177.177z"/><path stroke="#CDCDCD" d="M10.667 4.5H6M7 10l4-4"/></g></svg>
