<svg width="16" height="16" xmlns="http://www.w3.org/2000/svg"><g fill="none" fill-rule="evenodd"><path d="M0 0h16v16H0z"/><g fill="#CDCDCD" fill-rule="nonzero"><path d="M3.576 4.659c-.186.295-.35.618-.49.971-.28.73-.42 1.573-.42 2.529s.14 1.8.42 2.53c.29.73.677 1.343 1.16 1.837a4.947 4.947 0 001.707 1.095 5.847 5.847 0 002.08.371c.72 0 1.396-.124 2.03-.37a4.786 4.786 0 001.69-1.096c.484-.494.866-1.107 1.145-1.837.29-.73.435-1.574.435-2.53 0-.956-.145-1.798-.435-2.529a5.74 5.74 0 00-.477-.971h-1.228c.216.338.394.721.527 1.155.187.595.28 1.26.28 1.996 0 .735-.093 1.406-.28 2.013a4.413 4.413 0 01-.806 1.523c-.338.42-.752.747-1.242.98-.49.223-1.044.333-1.663.333-.618 0-1.18-.11-1.68-.332-.491-.234-.911-.56-1.261-.98a4.59 4.59 0 01-.788-1.524A6.824 6.824 0 014 7.81c0-.735.093-1.401.28-1.996.133-.434.307-.817.518-1.155H3.576zM7.88 1.046c-.615 0-1.178.082-1.691.246-.503.164-.94.41-1.309.738a3.512 3.512 0 00-1.073 1.945H12a3.603 3.603 0 00-.227-.698 3.307 3.307 0 00-.877-1.2 4.012 4.012 0 00-1.323-.77 5.228 5.228 0 00-1.692-.261z"/><path d="M7 4.659h2v8.667H7zM.884 3.818L2.141.406l.965.23-.794 2.8L4.4 5.463l-.722.68zM3.447 11.254l-1.565.784.3 3.276.897.027-.038-2.634 1.005-.595a5.208 5.208 0 01-.599-.858zM2.677 7.865l-2.113.408L0 11.993l.99.274.677-2.934 1.05-.287a8.633 8.633 0 01-.05-.887c0-.101.007-.196.01-.294zM15.116 3.818L13.859.406l-.965.23.794 2.8L11.6 5.463l.722.68zM13.323 7.865l2.113.408.564 3.72-.99.274-.677-2.934-1.05-.287c.03-.286.05-.578.05-.887 0-.101-.007-.196-.01-.294zM12.551 11.254l1.565.784-.3 3.276-.897.027.038-2.634-1.005-.595c.223-.258.423-.543.6-.858z"/></g></g></svg>