<?xml version="1.0" encoding="UTF-8"?>
<svg width="16px" height="16px" viewBox="0 0 16 16" version="1.1" xmlns="http://www.w3.org/2000/svg" xmlns:xlink="http://www.w3.org/1999/xlink">
    <!-- Generator: Sketch 59.1 (86144) - https://sketch.com -->
    <title>Artboard</title>
    <desc>Created with Sketch.</desc>
    <g id="Artboard" stroke="none" stroke-width="1" fill="none" fill-rule="evenodd">
        <rect id="Rectangle" x="0" y="0" width="16" height="16"></rect>
        <g id="SUBMIT-BUG-ICON" transform="translate(8.000010, 8.241433) scale(-1, 1) rotate(-180.000000) translate(-8.000010, -8.241433) translate(0.000010, 0.241433)" fill="#CDCDCD" fill-rule="nonzero">
            <path d="M3.57551583,11.5826265 C3.39028938,11.2874269 3.22604291,10.9641606 3.0859364,10.6112943 C2.8066434,9.88082849 2.66666356,9.03862947 2.66666356,8.08263058 C2.66666356,7.1266317 2.8066434,6.28316601 3.0859364,5.5527002 C3.37596273,4.82223438 3.76270228,4.20956843 4.24608839,3.71543567 C4.74021448,3.23203623 5.30860048,2.86743666 5.95311973,2.62037028 C6.6083723,2.3733039 7.30209149,2.24930405 8.03254398,2.24930405 C8.7522498,2.24930405 9.42872235,2.3733039 10.0624883,2.62037028 C10.7070009,2.86743666 11.2705135,3.23203623 11.753893,3.71543567 C12.2372791,4.20956843 12.619132,4.82223438 12.898425,5.5527002 C13.1884513,6.28316601 13.3333178,7.1266317 13.3333178,8.08263058 C13.3333178,9.03862947 13.1884513,9.88082849 12.898425,10.6112943 C12.7635251,10.9640939 12.6030653,11.2874935 12.4205589,11.5826265 L11.1926936,11.5826265 C11.4094867,11.2443602 11.5866398,10.8612273 11.7200397,10.4276945 C11.9067595,9.83249521 11.999986,9.16682932 11.999986,8.43156351 C11.999986,7.69636437 11.9067595,7.02543182 11.7200397,6.41856586 C11.5333132,5.82336655 11.2641602,5.31530047 10.9140473,4.89516763 C10.5756077,4.47503479 10.1620215,4.14810183 9.67186207,3.91463544 C9.18171597,3.69290236 8.62763662,3.58263583 8.009104,3.58263583 C7.39057806,3.58263583 6.82993871,3.69290236 6.32811929,3.91463544 C5.83795987,4.14810183 5.41781369,4.47503479 5.06770076,4.89516763 C4.72926116,5.31523381 4.46666813,5.82336655 4.27994168,6.41856586 C4.0932219,7.02543182 3.99999534,7.69636437 3.99999534,8.43156351 C3.99999534,9.16682932 4.0932219,9.83249521 4.27994168,10.4276945 C4.41336153,10.861294 4.58729466,11.2443602 4.79817441,11.5826265 L3.57551583,11.5826265 Z" id="path5472"></path>
            <path d="M7.88075082,15.195469 C7.26534487,15.195469 6.70155886,15.1136024 6.18871946,14.9494893 C5.68613338,14.7853761 5.24924722,14.5396164 4.88000098,14.2113968 C4.51076141,13.8729238 4.22410175,13.4620243 4.01896865,12.9799449 C3.92667543,12.7584251 3.85806217,12.5188854 3.8072889,12.266239 L11.999986,12.266239 C11.9464527,12.5095854 11.8716062,12.7425318 11.7725663,12.9642049 C11.5674332,13.436031 11.2753002,13.8360172 10.8958073,14.1642368 C10.5265611,14.4924564 10.0856216,14.7491295 9.57278885,14.9337426 C9.05994278,15.1081091 8.49616344,15.195469 7.88075082,15.195469 L7.88075082,15.195469 Z" id="path5474"></path>
            <rect id="rect5476" transform="translate(7.999993, 7.249298) scale(-1, 1) rotate(-180.000000) translate(-7.999993, -7.249298) " x="6.99997851" y="2.91596994" width="2.00002927" height="8.66665657"></rect>
            <polygon id="path5478" points="0.884452303 12.4230389 2.14083751 15.8345682 3.10638305 15.6063152 2.31241731 12.8056584 4.40032821 10.7772008 3.67828238 10.0967616"></polygon>
            <path d="M3.44692932,4.98726086 L1.88235781,4.20370177 L2.18183746,0.927705586 L3.07896975,0.900372284 L3.04123646,3.53443588 L4.04590862,4.12919519 C3.82283555,4.38699489 3.62381578,4.67292789 3.44695598,4.98726086 L3.44692932,4.98726086 Z" id="path5480"></path>
            <path d="M2.67707688,8.37689691 L0.563799343,7.96803072 L-1.02318154e-11,4.24930172 L0.989585514,3.9745687 L1.66666472,6.90816529 L2.7161435,7.19589828 C2.68694354,7.48136462 2.66667689,7.77363094 2.66667689,8.08263058 C2.66667689,8.1837638 2.67394355,8.27829702 2.67707688,8.37689691 Z" id="path5482"></path>
            <polygon id="path5484" points="15.1155424 12.4230389 13.8591572 15.8345682 12.8936116 15.6063152 13.6875774 12.8056584 11.5996665 10.7772008 12.3217123 10.0967616"></polygon>
            <path d="M13.3229178,8.37689691 L15.4361954,7.96803072 L15.9999947,4.24930172 L15.0104092,3.9745687 L14.33333,6.90816529 L13.2838512,7.19589828 C13.3130512,7.48136462 13.3333178,7.77363094 13.3333178,8.08263058 C13.3333178,8.1837638 13.3260511,8.27829702 13.3229178,8.37689691 L13.3229178,8.37689691 Z" id="path5489"></path>
            <path d="M12.5513854,4.98726086 L14.1159569,4.20370177 L13.8164772,0.927705586 L12.9193449,0.900372284 L12.9570782,3.53443588 L11.9524061,4.12919519 C12.1754791,4.38699489 12.3744989,4.67292789 12.5513587,4.98726086 L12.5513854,4.98726086 Z" id="path5492"></path>
        </g>
    </g>
</svg>