<svg xmlns="http://www.w3.org/2000/svg" xmlns:xlink="http://www.w3.org/1999/xlink" width="100" height="100"><defs><path id="a" d="M0 .956h18.308v25.899H0z"/><path id="c" d="M0 .956h18.308v25.899H0z"/><path id="e" d="M0 .956h18.308v25.899H0z"/><path id="g" d="M0 .956h18.308v25.899H0z"/></defs><g fill="none" fill-rule="evenodd"><path fill="#666" fill-rule="nonzero" d="M50 0C22.3857625 0 0 22.3857625 0 50s22.3857625 50 50 50c13.2608245 0 25.9785201-5.267842 35.3553391-14.6446609C94.732158 75.9785201 100 63.2608245 100 50c0-27.6142375-22.3857625-50-50-50z"/><g transform="translate(41.308 22)"><mask id="b" fill="#fff"><use xlink:href="#a"/></mask><path fill="#FFF" fill-rule="nonzero" d="M4.30769229 35.5384729V9.69230789c0-2.39015604 1.91753648-4.30769252 4.30769253-4.30769252h1.07692655C12.0824674 5.38461537 14 7.30215185 14 9.69230789v4.30770621h4.3076962V9.69230789c0-4.76922879-3.846156-8.6153848-8.61538483-8.6153848H8.61538482C3.84615602 1.07692309 2e-8 4.9230791 2e-8 9.69230789V35.5384729h4.30769227z" mask="url(#b)"/></g><g transform="rotate(180 29.808 39)"><mask id="d" fill="#fff"><use xlink:href="#c"/></mask><path fill="#FFF" fill-rule="nonzero" d="M4.30769229 35.5384729V9.69230789c0-2.39015604 1.91753648-4.30769252 4.30769253-4.30769252h1.07692655C12.0824674 5.38461537 14 7.30215185 14 9.69230789v4.30770621h4.3076962V9.69230789c0-4.76922879-3.846156-8.6153848-8.61538483-8.6153848H8.61538482C3.84615602 1.07692309 2e-8 4.9230791 2e-8 9.69230789V35.5384729h4.30769227z" mask="url(#d)"/></g><g transform="rotate(90 18.27 59.654)"><mask id="f" fill="#fff"><use xlink:href="#e"/></mask><path fill="#FFF" fill-rule="nonzero" d="M4.30769229 35.5384729V9.69230789c0-2.39015604 1.91753648-4.30769252 4.30769253-4.30769252h1.07692655C12.0824674 5.38461537 14 7.30215185 14 9.69230789v4.30770621h4.3076962V9.69230789c0-4.76922879-3.846156-8.6153848-8.61538483-8.6153848H8.61538482C3.84615602 1.07692309 2e-8 4.9230791 2e-8 9.69230789V35.5384729h4.30769227z" mask="url(#f)"/></g><g transform="rotate(-90 40.808 17.808)"><mask id="h" fill="#fff"><use xlink:href="#g"/></mask><path fill="#FFF" fill-rule="nonzero" d="M4.30769229 35.5384729V9.69230789c0-2.39015604 1.91753648-4.30769252 4.30769253-4.30769252h1.07692655C12.0824674 5.38461537 14 7.30215185 14 9.69230789v4.30770621h4.3076962V9.69230789c0-4.76922879-3.846156-8.6153848-8.61538483-8.6153848H8.61538482C3.84615602 1.07692309 2e-8 4.9230791 2e-8 9.69230789V35.5384729h4.30769227z" mask="url(#h)"/></g></g></svg>
