<?xml version="1.0" encoding="UTF-8" standalone="no"?>
<svg xmlns="http://www.w3.org/2000/svg" height="16px" width="16px" version="1.1" xmlns:xlink="http://www.w3.org/1999/xlink" viewBox="0 0 16 16"><!-- Generator: Sketch 64 (93537) - https://sketch.com -->
 <title>fullscreen</title>
 <desc>Created with Sketch.</desc>
 <g id="fullscreen" fill-rule="evenodd" fill="none">
  <path id="Shape" fill="#666" d="m15 10v2c0 1.657-1.343 3-3 3h-2v-1.5h2c0.78 0 1.42-0.595 1.493-1.356l0.007-0.144v-2h1.5zm-12.5 0v2c0 0.78 0.5949 1.42 1.3555 1.493l0.1445 0.007h2v1.5h-2c-1.6569 0-3-1.343-3-3v-2h1.5zm3.5-9v1.5h-2l-0.1445 0.0069c-0.7131 0.0681-1.2805 0.6355-1.3486 1.3486l-0.0069 0.1445v2h-1.5v-2c0-1.5977 1.2489-2.9037 2.8237-2.9949l0.1763-0.0051h2zm6 0c1.598 0 2.904 1.2489 2.995 2.8237l0.005 0.1763v2h-1.5v-2l-0.007-0.1445c-0.068-0.7131-0.635-1.2805-1.349-1.3486l-0.144-0.0069h-2v-1.5h2z"/>
 </g>
</svg>
