<svg xmlns="http://www.w3.org/2000/svg" width="16" height="16"><g fill="#E5E5E5"><path d="M9.474 1.694H12.5c.438 0 .785.051 1.078.193.292.142.526.399.665.723.277.65.247 1.443.257 2.527v7.23c-.01 1.086.02 1.88-.257 2.529a1.4 1.4 0 01-.665.723c-.293.142-.64.193-1.078.193h-9c-.439 0-.785-.051-1.078-.193a1.401 1.401 0 01-.665-.723c-.229-.536-.248-1.17-.254-1.985h.746c.015.826.054 1.381.166 1.65.066.16.14.252.311.337.171.085.443.14.833.14h8.882c.39 0 .662-.055.833-.14a.573.573 0 00.311-.337c.133-.32.163-1.045.172-2.148V5.087c-.01-1.1-.039-1.823-.172-2.143a.574.574 0 00-.311-.336c-.171-.086-.443-.14-.833-.14H9.156c.169-.218.282-.484.318-.774zm-2.948 0c.035.29.149.556.317.774H3.56c-.39 0-.662.054-.833.14a.574.574 0 00-.311.337c-.133.32-.162 1.042-.172 2.143v8.21H1.5V5.14c.01-1.087-.02-1.88.257-2.53.139-.324.373-.58.665-.723.293-.142.64-.193 1.078-.193h3.026z"/><path d="M10.227 1.694v2.26H5.77v-2.26h1.486a.742.742 0 101.484 0h1.486z"/><path d="M9.485 1.506c0 .827-.67 1.505-1.485 1.505-.816 0-1.486-.678-1.486-1.505C6.514.678 7.184 0 8 0s1.485.678 1.485 1.506zm-.742 0a.742.742 0 10-1.486 0 .742.742 0 101.486 0zM4.286 5.647h7.428v.941H4.286zM4.286 8.471h7.428v.941H4.286zM4.286 11.294h7.428v.941H4.286z"/></g></svg>
