<svg width="16" height="14" xmlns="http://www.w3.org/2000/svg"><g fill="none" fill-rule="evenodd"><path d="M14.756 6C15.436 6 16 5.436 16 4.756V1.244C16 .564 15.436 0 14.756 0h-3.512C10.564 0 10 .564 10 1.244v3.512C10 5.436 10.564 6 11.244 6h3.512zm0-1.067h-3.512c-.107 0-.177-.07-.177-.177V1.244c0-.107.07-.177.177-.177h3.512c.107 0 .177.07.177.177v3.512c0 .107-.07.177-.177.177zM4.756 14C5.436 14 6 13.436 6 12.756V9.244C6 8.564 5.436 8 4.756 8H1.244C.564 8 0 8.564 0 9.244v3.512C0 13.436.564 14 1.244 14h3.512zm0-1.067H1.244c-.107 0-.177-.07-.177-.177V9.244c0-.107.07-.177.177-.177h3.512c.107 0 .177.07.177.177v3.512c0 .107-.07.177-.177.177zM14.756 14c.68 0 1.244-.564 1.244-1.244V9.244C16 8.564 15.436 8 14.756 8h-3.512C10.564 8 10 8.564 10 9.244v3.512c0 .68.564 1.244 1.244 1.244h3.512zm0-1.067h-3.512c-.107 0-.177-.07-.177-.177V9.244c0-.107.07-.177.177-.177h3.512c.107 0 .177.07.177.177v3.512c0 .107-.07.177-.177.177zM4.756 6C5.436 6 6 5.436 6 4.756V1.244C6 .564 5.436 0 4.756 0H1.244C.564 0 0 .564 0 1.244v3.512C0 5.436.564 6 1.244 6h3.512zm0-1.067H1.244c-.107 0-.177-.07-.177-.177V1.244c0-.107.07-.177.177-.177h3.512c.107 0 .177.07.177.177v3.512c0 .107-.07.177-.177.177z" fill="#f7f7f7" fill-rule="nonzero"/><path stroke="#f7f7f7" d="M10.667 3H6M10.667 11H6M5 9l6-4"/></g></svg>
