<svg xmlns="http://www.w3.org/2000/svg" width="16" height="16"><path fill="#CDCDCD" d="M1.167 16A1.175 1.175 0 010 14.833v-4.666C0 9.529.529 9 1.167 9h4.666C6.471 9 7 9.529 7 10.167v4.666C7 15.471 6.471 16 5.833 16H1.167zm0-1h4.666c.101 0 .167-.066.167-.167v-4.666c0-.101-.066-.167-.167-.167H1.167c-.101 0-.167.066-.167.167v4.666c0 .101.066.167.167.167zm9 1A1.175 1.175 0 019 14.833v-4.666C9 9.529 9.529 9 10.167 9h4.666C15.471 9 16 9.529 16 10.167v4.666c0 .638-.529 1.167-1.167 1.167h-4.666zm0-1h4.666c.101 0 .167-.066.167-.167v-4.666c0-.101-.066-.167-.167-.167h-4.666c-.101 0-.167.066-.167.167v4.666c0 .101.066.167.167.167zm0-8A1.175 1.175 0 019 5.833V1.167C9 .529 9.529 0 10.167 0h4.666C15.471 0 16 .529 16 1.167v4.666C16 6.471 15.471 7 14.833 7h-4.666zm0-1h4.666c.101 0 .167-.066.167-.167V1.167c0-.101-.066-.167-.167-.167h-4.666c-.101 0-.167.066-.167.167v4.666c0 .101.066.167.167.167z"/></svg>
