<svg xmlns="http://www.w3.org/2000/svg" width="16" height="16"><g fill="#E5E5E5"><path d="M7 13v-1H1.166C1.065 12 1 11.935 1 11.834V1.166c0-.1.065-.166.166-.166h10.666c.101 0 .134.07.168.166V7h1V1.166C13 .528 12.47 0 11.832 0H1.166C.528 0 0 .528 0 1.166v10.668C0 12.472.49 13 1.166 13H7z"/><path d="M15 4l-2.5 4L10 4zM14.833 9C15.471 9 16 9.529 16 10.167v4.666c0 .638-.529 1.167-1.167 1.167h-4.666A1.175 1.175 0 019 14.833v-4.666C9 9.529 9.529 9 10.167 9h4.666zm0 1h-4.666c-.101 0-.167.066-.167.167v4.666c0 .101.066.167.167.167h4.666c.101 0 .167-.066.167-.167v-4.666c0-.101-.066-.167-.167-.167z"/></g></svg>
