<svg xmlns="http://www.w3.org/2000/svg" width="16" height="14" viewBox="0 0 16 14">
  <path fill="#666" fill-rule="evenodd" d="M15.5,13.7142857 C15.7761424,13.7142857 16,13.9381433 16,14.2142857 L16,14.3571429 C16,14.6332852 15.7761424,14.8571429 15.5,14.8571429 L7.35714286,14.8571429 C7.08100048,14.8571429 6.85714286,14.6332852 6.85714286,14.3571429 L6.85714286,14.2142857 C6.85714286,13.9381433 7.08100048,13.7142857 7.35714286,13.7142857 L15.5,13.7142857 Z M2.28571429,10.2857143 C3.54807943,10.2857143 4.57142857,11.3090634 4.57142857,12.5714286 C4.57142857,13.8337937 3.54807943,14.8571429 2.28571429,14.8571429 C1.02334914,14.8571429 0,13.8337937 0,12.5714286 C0,11.3090634 1.02334914,10.2857143 2.28571429,10.2857143 Z M13.2142857,10.2857143 C13.4904281,10.2857143 13.7142857,10.5095719 13.7142857,10.7857143 L13.7142857,10.9285714 C13.7142857,11.2047138 13.4904281,11.4285714 13.2142857,11.4285714 L7.35714286,11.4285714 C7.08100048,11.4285714 6.85714286,11.2047138 6.85714286,10.9285714 L6.85714286,10.7857143 C6.85714286,10.5095719 7.08100048,10.2857143 7.35714286,10.2857143 L13.2142857,10.2857143 Z M15.5,4.57142857 C15.7761424,4.57142857 16,4.7952862 16,5.07142857 L16,5.21428571 C16,5.49042809 15.7761424,5.71428571 15.5,5.71428571 L7.35714286,5.71428571 C7.08100048,5.71428571 6.85714286,5.49042809 6.85714286,5.21428571 L6.85714286,5.07142857 C6.85714286,4.7952862 7.08100048,4.57142857 7.35714286,4.57142857 L15.5,4.57142857 Z M2.28571429,1.14285714 C3.54807943,1.14285714 4.57142857,2.16620629 4.57142857,3.42857143 C4.57142857,4.69093657 3.54807943,5.71428571 2.28571429,5.71428571 C1.02334914,5.71428571 0,4.69093657 0,3.42857143 C0,2.16620629 1.02334914,1.14285714 2.28571429,1.14285714 Z M13.2142857,1.14285714 C13.4904281,1.14285714 13.7142857,1.36671477 13.7142857,1.64285714 L13.7142857,1.78571429 C13.7142857,2.06185666 13.4904281,2.28571429 13.2142857,2.28571429 L7.35714286,2.28571429 C7.08100048,2.28571429 6.85714286,2.06185666 6.85714286,1.78571429 L6.85714286,1.64285714 C6.85714286,1.36671477 7.08100048,1.14285714 7.35714286,1.14285714 L13.2142857,1.14285714 Z" transform="translate(0 -1)"/>
</svg>
