<svg xmlns="http://www.w3.org/2000/svg" width="165" height="160"><g fill-rule="nonzero" fill="none"><path fill="#666" d="M82.621 32.783c18.923.055 35.81 11.89 42.316 29.66s1.255 37.711-13.159 49.972l-.197.226c-2.312 2.636-7.726 8.826-7.726 14.677v21.403c0 .374-.149.732-.413.997-.265.264-.623.413-.997.413h-9.151v8.149c.012.381-.132.75-.397 1.024-.266.274-.631.428-1.013.428H73.076c-.779 0-1.41-.631-1.41-1.41v-8.192h-9.15c-.779 0-1.41-.63-1.41-1.41v-21.402c0-5.851-5.414-12.04-7.727-14.677l-.197-.226c-14.414-12.26-19.665-32.202-13.158-49.972 6.506-17.77 23.392-29.605 42.315-29.66h.282zm7.853 117.347H74.486v6.74h15.988v-6.74zm10.56-11.378H63.98l-.054 8.559h37.109v-8.559zm0-10.73H64.049l-.06 9.32h37.047v-9.32zM82.552 35.603c-17.779.01-33.662 11.113-39.775 27.807-6.114 16.694-1.16 35.43 12.408 46.919l.155.155.254.296c2.438 2.724 8.06 9.171 8.44 15.834h37.022c.378-6.66 5.974-13.056 8.44-15.834l.267-.296.141-.155c13.565-11.488 18.521-30.22 12.411-46.912-6.049-16.526-21.671-27.576-39.23-27.81l-.533-.004z"/><path fill="#DD4814" d="M78.293 103.829v22.333c.008.2-.068.393-.21.533-.143.14-.338.212-.538.2-.389 0-.704-.315-.704-.705v-22.36H71.2c-3.836-.04-6.921-3.166-6.908-7.002.013-3.836 3.12-6.943 6.955-6.956 3.836-.013 6.963 3.072 7.002 6.908v5.64h8.418v-5.64c.038-3.847 3.183-6.937 7.03-6.908 3.847.028 6.945 3.164 6.927 7.011-.018 3.847-3.145 6.954-6.992 6.947h-5.555v22.333c.008.381-.283.703-.663.733-.39 0-.705-.315-.705-.705V103.83h-8.417zm-6.98-12.548h-.042c-2.737.436-4.75 2.797-4.75 5.569 0 2.771 2.013 5.132 4.75 5.569h5.64v-5.64c-.076-3.043-2.553-5.476-5.597-5.498zm20.308.28c-2.118.868-3.5 2.93-3.501 5.218v5.64h5.555c2.288.034 4.37-1.318 5.27-3.422.9-2.105.438-4.544-1.168-6.175-1.606-1.63-4.038-2.128-6.156-1.26z"/><path fill="#666" d="M128.852 126.641l12.14 12.21c.201.197.315.466.315.747 0 .282-.114.551-.315.748-.213.176-.486.262-.762.24-.279-.007-.545-.117-.747-.31l-12.125-12.14c-.388-.417-.377-1.066.026-1.469.402-.402 1.052-.414 1.468-.026zm-91.275.097c.402.402.414 1.052.025 1.468l-12.139 12.055c-.197.201-.465.317-.747.324-.281-.01-.548-.125-.747-.324-.36-.401-.36-1.008 0-1.41l12.139-12.14c.417-.387 1.066-.376 1.469.027zm126.213-45.44c.584 0 1.058.474 1.058 1.058 0 .584-.474 1.057-1.058 1.057h-17.159c-.584 0-1.057-.473-1.057-1.057s.473-1.058 1.057-1.058h17.16zm-145.461 0c.584 0 1.057.474 1.057 1.058 0 .584-.473 1.057-1.057 1.057H1.213c-.584 0-1.058-.473-1.058-1.057s.474-1.058 1.058-1.058h17.116zm122.649-57.087c.201.196.315.466.315.747 0 .282-.114.551-.315.747l-12.126 12.14c-.197.2-.466.311-.747.31-.28.001-.55-.11-.747-.31-.412-.413-.412-1.082 0-1.495l12.125-12.14c.413-.411 1.082-.411 1.495 0zm-115.515 0l12.14 12.14c.412.412.412 1.08 0 1.494-.198.2-.467.311-.748.31-.28.003-.55-.11-.747-.31l-12.14-12.14c-.388-.416-.376-1.066.027-1.468.402-.403 1.051-.414 1.468-.026zM82.48.045c.584 0 1.058.473 1.058 1.057v17.159c-.008.58-.477 1.05-1.058 1.057-.584 0-1.057-.473-1.057-1.057V1.102c0-.584.473-1.057 1.057-1.057z"/></g></svg>
