<svg xmlns="http://www.w3.org/2000/svg" width="16" height="16" viewBox="0 0 16 16">
  <path fill="#666" d="M8,0 C12.418278,0 16,3.581722 16,8 C16,12.418278 12.418278,16 8,16 C3.581722,16 0,12.418278 0,8 C0,3.581722 3.581722,0 8,0 Z M8,1.5 C4.41014913,1.5 1.5,4.41014913 1.5,8 C1.5,11.5898509 4.41014913,14.5 8,14.5 C11.5898509,14.5 14.5,11.5898509 14.5,8 C14.5,4.41014913 11.5898509,1.5 8,1.5 Z M6.05057295,5.03830473 L6.07572479,5.04543487 L10.9285423,7.95712535 C10.9355797,7.96134784 10.9414696,7.96723773 10.9456921,7.97427521 C10.9598995,7.99795423 10.9522213,8.02866724 10.9285423,8.04287465 L10.9285423,8.04287465 L6.07572479,10.9545651 C6.06795402,10.9592276 6.0590622,10.9616905 6.05,10.9616905 C6.02238576,10.9616905 6,10.9393047 6,10.9116905 L6,10.9116905 L6,5.08830952 C6,5.07924732 6.00246289,5.0703555 6.00712535,5.06258473 C6.02133276,5.03890572 6.05204577,5.03122746 6.07572479,5.04543487 Z"/>
</svg>
