<?xml version="1.0" encoding="UTF-8"?>
<svg width="60" height="23" version="1.1" viewBox="0 0 60 23" xmlns="http://www.w3.org/2000/svg">
 <path d="m10.429 14.841c0 0.86637-0.08664 1.6669-0.25991 2.4033-0.17328 0.73642-0.47131 1.3775-0.89583 1.9234-0.42452 0.54582-0.98767 0.97034-1.6894 1.2736-0.70176 0.30323-1.5811 0.45485-2.6381 0.45485-0.57619 0.0048-1.1512-0.05184-1.7154-0.16894-0.51982-0.11263-0.979-0.24692-1.3775-0.40286-0.34899-0.13129-0.68417-0.2967-1.0007-0.49383-0.26858-0.17328-0.47217-0.32922-0.61079-0.46784l0.83172-1.4295c0.15595 0.13862 0.35088 0.29023 0.5848 0.45485 0.23392 0.16461 0.50683 0.31623 0.81872 0.45485 0.72133 0.3141 1.5005 0.47348 2.2872 0.46784 1.3342 0 2.3176-0.35088 2.95-1.0526 0.63245-0.70176 0.94868-1.9017 0.94868-3.5998v-12.163h1.7674v12.346zm16.712 5.6661c-0.32922-0.8837-0.64112-1.7328-0.93568-2.5471-0.29457-0.81439-0.58047-1.6115-0.85771-2.3912h-8.759c-0.29457 0.77974-0.58913 1.5768-0.8837 2.3912-0.29457 0.81439-0.5978 1.6634-0.90969 2.5471h-1.8454c0.6931-1.8714 1.3429-3.618 1.9493-5.2381 0.60646-1.6201 1.2008-3.1536 1.7813-4.6004 0.58047-1.4468 1.1566-2.8374 1.7284-4.1716 0.57181-1.3342 1.1783-2.6684 1.8194-4.0027h1.5586c0.64112 1.3342 1.2476 2.6684 1.8194 4.0027 0.57181 1.3342 1.1479 2.7247 1.7284 4.1716 0.58047 1.4468 1.1739 2.9803 1.7804 4.6004 0.60646 1.6201 1.2649 3.3659 1.9753 5.2372h-1.9493zm-6.1859-15.985c-0.65844 1.4902-1.2944 3.0063-1.9095 4.5485-0.61512 1.5421-1.2519 3.2056-1.9104 4.9903h7.6674c-0.65844-1.7847-1.2996-3.4482-1.9234-4.9903-0.62379-1.5421-1.2649-3.0583-1.9234-4.5485zm23.704 15.985c-0.32922-0.8837-0.64112-1.7328-0.93568-2.5471-0.29457-0.81439-0.58047-1.6115-0.85771-2.3912h-8.759c-0.29457 0.77974-0.58913 1.5768-0.8837 2.3912-0.29457 0.81439-0.5978 1.6634-0.90969 2.5471h-1.8454c0.6931-1.8714 1.3429-3.618 1.9493-5.2381 0.60646-1.6201 1.2008-3.1536 1.7813-4.6004 0.58047-1.4468 1.1566-2.8374 1.7284-4.1716 0.57181-1.3342 1.1783-2.6684 1.8194-4.0027h1.5595c0.64112 1.3342 1.2476 2.6684 1.8194 4.0027 0.57181 1.3342 1.1479 2.7247 1.7284 4.1716 0.58047 1.4468 1.1739 2.9803 1.7804 4.6004 0.60646 1.6201 1.2649 3.3659 1.9753 5.2372h-1.9502zm-6.1859-15.985c-0.65844 1.4902-1.2944 3.0063-1.9095 4.5485-0.61512 1.5421-1.2519 3.2056-1.9104 4.9903h7.6674c-0.65844-1.7847-1.2996-3.4482-1.9234-4.9903-0.62379-1.5421-1.2649-3.0583-1.9234-4.5485zm15.023 14.841c1.4035 0 2.4952-0.25645 3.2749-0.76761 0.77974-0.51116 1.1696-1.3385 1.1696-2.4822 0-0.65844-0.12476-1.2086-0.37601-1.6504-0.25125-0.44185-0.5848-0.81439-1.0007-1.1176-0.41586-0.30323-0.89237-0.56314-1.4295-0.77974-0.53715-0.21659-1.1003-0.44618-1.6894-0.68877-0.74508-0.29457-1.4122-0.5978-2.0013-0.90969-0.54704-0.28234-1.054-0.63634-1.5075-1.0526-0.4057-0.37551-0.72878-0.83136-0.94868-1.3385-0.21659-0.5025-0.32489-1.0916-0.32489-1.7674 0-1.5421 0.51116-2.7118 1.5335-3.5088 1.0223-0.79706 2.4432-1.1956 4.2626-1.1956 0.48517 0 0.96168 0.034656 1.4295 0.10396 0.46784 0.06931 0.90536 0.16028 1.3126 0.27291s0.77974 0.23825 1.1176 0.37687c0.33789 0.13862 0.61946 0.2859 0.84472 0.44185l-0.62379 1.4815c-0.5025-0.34655-1.1133-0.62379-1.8324-0.83172-0.75683-0.21307-1.54-0.31807-2.3262-0.31189-0.57181 0-1.096 0.056315-1.5725 0.16894-0.47651 0.11263-0.88804 0.29457-1.2346 0.54582-0.34655 0.25125-0.61946 0.56748-0.81873 0.94868-0.19926 0.3812-0.2989 0.84038-0.2989 1.3775 0 0.55448 0.10396 1.0223 0.3119 1.4035 0.20793 0.3812 0.49816 0.71043 0.87071 0.98767 0.37254 0.27724 0.81006 0.52849 1.3126 0.75375 0.54219 0.24228 1.0881 0.47623 1.6374 0.70176 0.71043 0.29457 1.3819 0.58914 2.0143 0.8837 0.63245 0.29457 1.1826 0.64112 1.6504 1.0396 0.46784 0.39853 0.84038 0.8837 1.1176 1.4555s0.41586 1.2736 0.41586 2.1053c0 1.6288-0.56748 2.8504-1.7024 3.6648-1.135 0.81439-2.6728 1.2216-4.6134 1.2216-0.6931 0-1.3256-0.04332-1.8974-0.12996-0.57181-0.08664-1.083-0.19493-1.5335-0.32489-0.45052-0.12996-0.83172-0.26424-1.1436-0.40286-0.3119-0.13862-0.55448-0.25991-0.72776-0.36388l0.57181-1.5335c0.17328 0.10397 0.4072 0.22526 0.70176 0.36388 0.29457 0.13862 0.64112 0.27291 1.0396 0.40286 0.97468 0.30984 1.9923 0.46336 3.015 0.45485z" fill="#fff"/>
</svg>
