<svg xmlns="http://www.w3.org/2000/svg" width="69" height="23" viewBox="0 0 242 127">
  <path fill="#FFF" d="M56.5712258,68.4331341 C56.5712258,73.2172737 56.0907742,77.6409888 55.1369677,81.7056983 C54.1781935,85.7718268 52.5267742,89.3107989 50.184129,92.3240335 C47.8372258,95.3372682 44.7295484,97.6828659 40.8547097,99.3544413 C36.979871,101.027436 32.1214194,101.866771 26.2864516,101.866771 C22.8416774,101.866771 19.6836129,101.554592 16.8136774,100.933782 C13.9437419,100.310134 11.4066452,99.570838 9.20664516,98.7095084 C7.00380645,97.8481788 5.16290323,96.9400223 3.6803871,95.9836201 C2.19574194,95.0272179 1.07232258,94.1658883 0.307290323,93.4003408 L4.90032258,85.5078939 C5.76187097,86.2741508 6.83845161,87.1113575 8.13006452,88.0188045 C9.42167742,88.9290894 10.9290323,89.7648771 12.6514194,90.5297151 C14.3730968,91.2966816 16.2863871,91.9174916 18.3927097,92.3956927 C20.4961935,92.8746034 22.7927097,93.1129944 25.2822581,93.1129944 C32.6487097,93.1129944 38.0784516,91.1753575 41.5729032,87.3022123 C45.0645161,83.427648 46.8110323,76.8037821 46.8110323,67.428486 L46.8110323,0.273156425 L56.5719355,0.273156425 L56.5719355,68.4331341 L56.5712258,68.4331341 Z M133.601032,97.1308771 C130.825484,97.8978436 127.092581,98.7577542 122.406581,99.7141564 C117.717032,100.669849 111.976452,101.14805 105.18271,101.14805 C99.6316129,101.14805 94.9924516,100.334966 91.2595484,98.7087989 C87.5280645,97.0833408 84.5147742,94.7881173 82.2182581,91.821 C79.9217419,88.8567207 78.2710323,85.2695028 77.2654194,81.0586369 C76.2612258,76.8506089 75.7587742,72.2112067 75.7587742,67.1411397 L75.7587742,25.5277095 L85.0881935,25.5277095 L85.0881935,64.126486 C85.0881935,69.3888268 85.47,73.8380838 86.2364516,77.4721285 C87.0014839,81.1090112 88.2462581,84.0498771 89.9679355,86.2968547 C91.6917419,88.5452514 93.9151613,90.1707095 96.6424516,91.174648 C99.3697419,92.1807151 102.693161,92.6823296 106.617677,92.6823296 C111.018387,92.6823296 114.845677,92.4439385 118.100258,91.9643184 C121.353419,91.4875363 123.410774,91.056162 124.272323,90.6730335 L124.272323,25.5277095 L133.601742,25.5277095 L133.601742,97.1308771 L133.601032,97.1308771 Z M140.647419,126.547341 C139.594968,126.547341 138.278516,126.403313 136.700194,126.117385 C135.120452,125.830039 133.950903,125.493028 133.183742,125.112028 L134.475355,117.506927 C135.146,117.697782 136.054387,117.887927 137.201935,118.080911 C138.350903,118.272475 139.451613,118.368257 140.503355,118.368257 C146.148129,118.368257 149.903742,116.788916 151.770194,113.632363 C153.636645,110.47581 154.569161,105.739916 154.569161,99.4268101 L154.569161,25.5277095 L163.898581,25.5277095 L163.898581,98.9961453 C163.898581,108.370732 162.126516,115.304648 158.587355,119.802151 C155.046774,124.297525 149.064903,126.547341 140.647419,126.547341 Z M241.447161,97.1308771 C238.670194,97.8978436 234.93871,98.7577542 230.25271,99.7141564 C225.563161,100.669849 219.821871,101.14805 213.028839,101.14805 C207.477742,101.14805 202.838581,100.334966 199.105677,98.7087989 C195.374194,97.0833408 192.360194,94.7881173 190.064387,91.821 C187.767871,88.8567207 186.117161,85.2695028 185.111548,81.0586369 C184.106645,76.8506089 183.604903,72.2112067 183.604903,67.1411397 L183.604903,25.5277095 L192.934323,25.5277095 L192.934323,64.126486 C192.934323,69.3888268 193.314,73.8380838 194.081871,77.4721285 C194.846903,81.1090112 196.090968,84.0498771 197.813355,86.2968547 C199.536452,88.5452514 201.760581,90.1707095 204.487161,91.174648 C207.215161,92.1807151 210.538581,92.6823296 214.463097,92.6823296 C218.862387,92.6823296 222.691097,92.4439385 225.945677,91.9643184 C229.198839,91.4875363 231.256194,91.056162 232.117742,90.6730335 L232.117742,25.5277095 L241.447161,25.5277095 L241.447161,97.1308771 L241.447161,97.1308771 Z"/>
</svg>
