<svg height="245.984" width="695.684" xml:space="preserve" xmlns="http://www.w3.org/2000/svg"><g transform="translate(-.88 -.81)"><circle cy="121.29" cx="121.36" r="120.48" fill="#e95420" style="fill-rule:nonzero"/><g transform="translate(51.045 21.282)" fill="#fff" style="fill-rule:nonzero"><circle cy="92.675" cx="76.708" r="8.03"/><path d="M83.57 78.957H69.851v-54.86C69.868 10.846 80.608.11 93.859.096c13.251.018 23.981 10.753 24.001 24.001v13.711h-13.72V24.097c0-2.747-1.07-5.334-3.01-7.277a10.297 10.297 0 0 0-17.56 7.277z"/><path d="M128.15 102.97c-13.26-.02-24-10.759-24.01-24.013v-34.29h13.72v34.298c0 5.671 4.62 10.281 10.28 10.281 5.68 0 10.29-4.61 10.29-10.281V44.659h13.72v34.298c0 6.402-2.49 12.434-7.03 16.964a23.863 23.863 0 0 1-16.97 7.039z"/><circle cy="174.97" cx="8.131" r="8.03"/><path d="M14.99 161.26H1.271V85.817C1.29 72.566 12.03 61.83 25.281 61.816c13.246.018 23.981 10.753 24 24.001v13.719H35.56V85.817c0-2.747-1.068-5.334-3.012-7.278a10.298 10.298 0 0 0-17.559 7.278v75.443z"/><path d="M59.569 164.69c-13.254-.02-23.995-10.76-24.008-24.01v-34.29H49.28v34.29c0 5.67 4.61 10.29 10.281 10.29 5.679 0 10.29-4.62 10.29-10.29v-34.29H83.57v34.29c0 6.41-2.498 12.44-7.029 16.97a23.865 23.865 0 0 1-16.972 7.04z"/></g><path fill="#fff" d="M385.566 149.034c0 8.048-.808 15.49-2.413 22.327-1.613 6.84-4.39 12.794-8.331 17.863-3.948 5.068-9.176 9.014-15.694 11.826-6.519 2.814-14.692 4.226-24.507 4.226-5.795 0-11.107-.524-15.935-1.57-4.828-1.048-9.096-2.292-12.797-3.74-3.705-1.45-6.802-2.977-9.296-4.586-2.498-1.61-4.387-3.058-5.674-4.346l7.726-13.277c1.45 1.29 3.26 2.698 5.433 4.224 2.173 1.532 4.709 2.938 7.606 4.224 2.896 1.29 6.115 2.335 9.658 3.139 3.539.805 7.402 1.207 11.59 1.207 12.392 0 21.525-3.26 27.404-9.775 5.873-6.518 8.811-17.66 8.811-33.432V34.375h16.42v114.66Zm129.58 48.276c-4.67 1.29-10.949 2.736-18.832 4.345-7.889 1.608-17.545 2.412-28.974 2.412-9.338 0-17.142-1.368-23.421-4.103-6.277-2.734-11.346-6.595-15.21-11.587-3.863-4.986-6.64-11.02-8.331-18.104-1.69-7.079-2.535-14.883-2.535-23.412V76.859h15.694v64.93c0 8.853.642 16.337 1.932 22.45 1.287 6.119 3.38 11.066 6.277 14.846 2.9 3.782 6.64 6.516 11.228 8.205 4.588 1.692 10.178 2.536 16.78 2.536 7.403 0 13.841-.401 19.316-1.208 5.473-.802 8.933-1.527 10.383-2.172V76.86h15.694v120.45Zm11.853 49.484c-1.77 0-3.985-.242-6.64-.724-2.658-.483-4.625-1.05-5.915-1.69l2.172-12.794c1.128.321 2.657.64 4.587.965 1.933.323 3.784.483 5.554.483 9.495 0 15.813-2.656 18.953-7.966 3.14-5.31 4.708-13.277 4.708-23.897V76.858h15.694v123.589c0 15.77-2.981 27.434-8.935 35-5.955 7.562-16.018 11.346-30.178 11.346zm169.565-49.484c-4.671 1.29-10.948 2.736-18.831 4.345-7.889 1.608-17.547 2.412-28.974 2.412-9.338 0-17.142-1.368-23.422-4.103-6.277-2.734-11.347-6.595-15.209-11.587-3.863-4.986-6.64-11.02-8.331-18.104-1.69-7.079-2.535-14.883-2.535-23.412V76.859h15.694v64.93c0 8.853.639 16.337 1.93 22.45 1.287 6.119 3.38 11.066 6.278 14.846 2.898 3.782 6.64 6.516 11.226 8.205 4.59 1.692 10.18 2.536 16.782 2.536 7.4 0 13.84-.401 19.316-1.208 5.472-.802 8.933-1.527 10.382-2.172V76.86h15.694z" style="fill:#000;fill-opacity:1;stroke-width:.181102"/></g></svg>