<svg xmlns="http://www.w3.org/2000/svg" width="31" height="31" viewBox="0 0 31 31">
  <g fill="none" transform="translate(.11 .1)">
    <circle cx="15" cy="15" r="15" fill="#E95420"/>
    <g fill="#FFF" transform="translate(5.276 2.55)">
      <circle cx="10.519" cy="11.538" r="1"/>
      <path d="M11.373,9.83 L9.665,9.83 L9.665,3 C9.66720466,1.35029688 11.0042962,0.0136526424 12.654,0.012 C14.3033133,0.0142034943 15.6397965,1.35068675 15.642,3 L15.642,4.707 L13.934,4.707 L13.934,3 C13.934,2.658 13.801,2.336 13.559,2.094 C13.1921847,1.72920547 12.6420597,1.62062746 12.1641516,1.81869916 C11.6862435,2.01677085 11.3742152,2.48267315 11.373,3 L11.373,9.83 L11.373,9.83 Z"/>
      <path d="M16.923,12.819 C15.2729063,12.8173463 13.9356537,11.4800937 13.934,9.83 L13.934,5.561 L15.642,5.561 L15.642,9.831 C15.642,10.537 16.217,11.111 16.922,11.111 C17.629,11.111 18.203,10.537 18.203,9.831 L18.203,5.56 L19.911,5.56 L19.911,9.83 C19.911,10.627 19.601,11.378 19.036,11.942 C18.4769311,12.5044875 17.7160615,12.8199261 16.923,12.818 L16.923,12.819 Z"/>
      <circle cx="1.981" cy="21.783" r="1"/>
      <path d="M2.835,20.076 L1.127,20.076 L1.127,10.684 C1.12920466,9.03429688 2.46629624,7.69765264 4.116,7.696 C5.76531325,7.69820349 7.10179651,9.03468675 7.104,10.684 L7.104,12.392 L5.396,12.392 L5.396,10.684 C5.396,10.342 5.263,10.02 5.021,9.778 C4.65418466,9.41320547 4.10405971,9.30462746 3.62615162,9.50269916 C3.14824352,9.70077085 2.83621517,10.1666732 2.835,10.684 L2.835,20.076 Z"/>
      <path d="M8.385,20.5030088 C6.73490634,20.5013463 5.39765368,19.1640937 5.396,17.514 L5.396,13.245 L7.104,13.245 L7.104,17.515 C7.104,18.22 7.678,18.795 8.384,18.795 C9.091,18.795 9.665,18.22 9.665,17.515 L9.665,13.245 L11.373,13.245 L11.373,17.515 C11.373,18.313 11.062,19.063 10.498,19.627 C9.93893105,20.1894875 9.17806151,20.5049261 8.385,20.5030088 L8.385,20.5030088 Z"/>
    </g>
  </g>
</svg>
