<svg xmlns="http://www.w3.org/2000/svg" height="242" width="844"><g fill-rule="nonzero" fill="none"><circle cy="121.29" cx="121.36" r="120.48" fill="#E95420"/><g transform="translate(51.045 21.282)" fill="#fff"><circle cy="92.675" cx="76.708" r="8.0302"/><path d="M83.57 78.957H69.851v-54.86C69.868 10.846 80.608.11 93.859.096c13.251.01809 23.981 10.753 24.001 24.001v13.711h-13.72V24.097c0-2.747-1.07-5.334-3.01-7.277-2.948-2.931-7.367-3.803-11.206-2.212-3.838 1.591-6.345 5.333-6.354 9.489v54.86z"/><path d="M128.15 102.97c-13.26-.02-24-10.759-24.01-24.013v-34.29h13.72v34.298c0 5.671 4.62 10.281 10.28 10.281 5.68 0 10.29-4.61 10.29-10.281V44.659h13.72v34.298c0 6.402-2.49 12.434-7.03 16.964-4.49 4.519-10.6 7.049-16.97 7.039v.01z"/><circle cy="174.97" cx="8.1314" r="8.0302"/><path d="M14.99 161.26H1.271l.0001-75.443c.0177-13.251 10.758-23.987 24.009-24.001 13.247.018 23.982 10.753 24 24.001v13.719h-13.719V85.817c0-2.747-1.068-5.334-3.012-7.278-2.947-2.93-7.365-3.802-11.204-2.211s-6.345 5.333-6.355 9.489v75.443z"/><path d="M59.569 164.69c-13.254-.02-23.995-10.76-24.008-24.01v-34.29H49.28v34.29c0 5.67 4.61 10.29 10.281 10.29 5.679 0 10.29-4.62 10.29-10.29v-34.29H83.57v34.29c0 6.41-2.498 12.44-7.029 16.97-4.49 4.52-10.602 7.05-16.972 7.04z"/></g><path fill="#000" d="M385.55 148.28c0 8.03-.8 15.45-2.41 22.28-1.61 6.82-4.37 12.77-8.31 17.83-3.93 5.06-9.15 8.99-15.66 11.81-6.51 2.81-14.66 4.21-24.46 4.21-5.34.05-10.67-.48-15.9-1.56-4.82-1.05-9.08-2.29-12.77-3.74-3.24-1.22-6.35-2.75-9.28-4.58-2.49-1.6-4.38-3.05-5.66-4.33l7.71-13.26c1.44 1.29 3.25 2.69 5.42 4.22s4.7 2.93 7.59 4.22c6.69 2.91 13.91 4.39 21.21 4.33 12.37 0 21.48-3.25 27.35-9.76 5.86-6.5 8.79-17.63 8.79-33.37V33.82l16.39-.004v114.46h-.01zm154.94 52.53c-3.05-8.2-5.94-16.07-8.67-23.62-2.74-7.55-5.39-14.94-7.96-22.17h-81.2c-2.73 7.23-5.46 14.62-8.2 22.17-2.73 7.55-5.54 15.42-8.43 23.62h-17.11c6.43-17.35 12.45-33.55 18.07-48.57 5.63-15.02 11.14-29.23 16.52-42.65 5.38-13.412 10.72-26.304 16.02-38.673 5.3-12.37 10.93-24.74 16.87-37.109h14.45c5.95 12.369 11.57 24.739 16.87 37.109 5.3 12.369 10.64 25.261 16.02 38.673 5.38 13.42 10.89 27.63 16.51 42.65s11.73 31.21 18.31 48.56h-18.07v.01zm-57.35-148.2c-6.1 13.816-12 27.872-17.7 42.17-5.71 14.299-11.61 29.719-17.71 46.269h71.08c-6.1-16.55-12.05-31.97-17.83-46.269-5.78-14.298-11.73-28.354-17.83-42.17h-.01zm219.76 148.2c-3.05-8.2-5.94-16.07-8.67-23.62s-5.38-14.94-7.95-22.17h-81.21c-2.73 7.23-5.46 14.62-8.19 22.17s-5.55 15.42-8.44 23.62h-17.11c6.43-17.35 12.45-33.55 18.08-48.57 5.62-15.02 11.13-29.23 16.51-42.65 5.38-13.412 10.72-26.304 16.03-38.673 5.3-12.37 10.92-24.74 16.86-37.109h14.46c5.95 12.369 11.57 24.739 16.87 37.109 5.3 12.369 10.64 25.261 16.02 38.673 5.39 13.42 10.89 27.63 16.51 42.65s11.73 31.21 18.31 48.56H702.9v.01zm-57.35-148.2c-6.1 13.816-12 27.872-17.7 42.17-5.7 14.299-11.61 29.719-17.71 46.269h71.08c-6.1-16.55-12.04-31.97-17.83-46.269-5.78-14.298-11.72-28.354-17.83-42.17h-.01zM784.83 190.2c13.01 0 23.13-2.37 30.36-7.11s10.85-12.41 10.85-23.02c0-6.1-1.16-11.2-3.49-15.3-2.33-4.09-5.42-7.55-9.28-10.36-3.85-2.81-8.27-5.22-13.25-7.23s-10.2-4.13-15.66-6.38c-6.91-2.73-13.09-5.55-18.56-8.44-5.07-2.61-9.77-5.9-13.97-9.76-3.76-3.477-6.76-7.704-8.8-12.406-2.01-4.658-3.01-10.12-3.01-16.386 0-14.297 4.74-25.141 14.22-32.53 9.48-7.39 22.65-11.085 39.52-11.085 4.49 0 8.91.322 13.25.964 4.34.643 8.39 1.486 12.17 2.53 3.77 1.044 7.23 2.209 10.36 3.494s5.74 2.651 7.83 4.097l-5.78 13.735c-4.66-3.213-10.32-5.783-16.99-7.711-7.02-1.975-14.28-2.949-21.57-2.892-5.3 0-10.16.522-14.58 1.567-4.41 1.044-8.23 2.731-11.44 5.06s-5.74 5.261-7.59 8.795-2.77 7.792-2.77 12.772c0 5.14.96 9.478 2.89 13.012s4.62 6.586 8.07 9.157c3.45 2.57 7.51 4.899 12.17 6.987 5.03 2.25 10.09 4.42 15.18 6.51 6.59 2.73 12.81 5.46 18.68 8.19 5.86 2.73 10.96 5.94 15.3 9.64 4.33 3.69 7.79 8.19 10.36 13.49s3.85 11.81 3.85 19.52c0 15.1-5.26 26.43-15.78 33.98s-24.78 11.32-42.77 11.32c-6.43 0-12.29-.4-17.59-1.2-5.3-.81-10.04-1.81-14.22-3.01-4.18-1.21-7.71-2.45-10.6-3.74-2.89-1.28-5.14-2.41-6.75-3.37l5.3-14.22c1.61.96 3.78 2.09 6.51 3.37 2.73 1.29 5.94 2.53 9.64 3.74 9.03 2.87 18.47 4.29 27.95 4.22h-.01z"/></g></svg>
