<svg xmlns="http://www.w3.org/2000/svg" width="114" height="32" viewBox="0 0 114 32">
    <g fill="none" fill-rule="nonzero">
        <g fill="#000">
            <path d="M51.915 19.794a12.59 12.59 0 0 1-.339 2.994 6.071 6.071 0 0 1-1.19 2.431c-.57.698-1.332 1.245-2.287 1.642-.956.397-2.152.596-3.59.596-.73 0-1.4-.06-2.013-.177a10.641 10.641 0 0 1-1.658-.451 9.072 9.072 0 0 1-1.288-.58 4.82 4.82 0 0 1-.87-.596l1.224-2.479c.451.323 1.036.66 1.755 1.015.72.354 1.615.53 2.689.53 1.545 0 2.672-.39 3.38-1.174.709-.784 1.063-2.13 1.063-4.041V4.66h3.124v15.133zM71.14 26.974c-.365-.966-.708-1.916-1.03-2.85-.322-.934-.655-1.883-.998-2.85h-10.11l-2.03 5.7h-3.251c.858-2.361 1.663-4.545 2.415-6.552a285.03 285.03 0 0 1 2.205-5.715c.72-1.803 1.433-3.526 2.141-5.168a133.24 133.24 0 0 1 2.222-4.878h2.866c.773 1.61 1.513 3.236 2.221 4.878a202.322 202.322 0 0 1 2.142 5.168 288.956 288.956 0 0 1 2.205 5.715 750.418 750.418 0 0 1 2.415 6.552H71.14zm-2.93-8.275a359.933 359.933 0 0 0-2.045-5.425 96.82 96.82 0 0 0-2.108-5.039 80.735 80.735 0 0 0-2.141 5.039 218.763 218.763 0 0 0-2.013 5.425h8.307zM93.59 26.974c-.366-.966-.71-1.916-1.031-2.85-.322-.934-.655-1.883-.998-2.85H81.45l-2.03 5.7H76.17c.858-2.361 1.664-4.545 2.415-6.552a284.859 284.859 0 0 1 2.207-5.715c.719-1.803 1.432-3.526 2.14-5.168a133.24 133.24 0 0 1 2.222-4.878h2.866c.773 1.61 1.513 3.236 2.222 4.878a202.304 202.304 0 0 1 2.141 5.168 292.196 292.196 0 0 1 2.206 5.715c.75 2.007 1.555 4.191 2.414 6.552H93.59zm-2.93-8.275a359.933 359.933 0 0 0-2.045-5.425 97.044 97.044 0 0 0-2.109-5.039 80.581 80.581 0 0 0-2.141 5.039 218.763 218.763 0 0 0-2.013 5.425h8.307zM105.727 24.752c3.263 0 4.895-1.116 4.895-3.348 0-.687-.145-1.272-.435-1.755a4.214 4.214 0 0 0-1.175-1.256 8.18 8.18 0 0 0-1.69-.917 58.115 58.115 0 0 0-2.013-.773 20.365 20.365 0 0 1-2.318-.95 8.1 8.1 0 0 1-1.9-1.255 5.316 5.316 0 0 1-1.271-1.723c-.312-.665-.467-1.47-.467-2.415 0-1.953.665-3.477 1.996-4.572 1.33-1.095 3.166-1.642 5.505-1.642 1.353 0 2.581.145 3.687.435 1.105.29 1.916.607 2.43.95l-.997 2.543c-.45-.279-1.122-.552-2.012-.82-.892-.269-1.927-.404-3.108-.404-.6 0-1.16.065-1.674.194a4.288 4.288 0 0 0-1.352.58 2.866 2.866 0 0 0-.918.981c-.225.398-.338.865-.338 1.4 0 .602.118 1.107.355 1.514a3.5 3.5 0 0 0 .998 1.08c.429.31.928.595 1.497.852.568.258 1.196.515 1.883.773a43.38 43.38 0 0 1 2.657 1.16 8.666 8.666 0 0 1 2.092 1.383 5.557 5.557 0 0 1 1.368 1.916c.322.74.484 1.637.484 2.689 0 1.953-.714 3.456-2.141 4.507-1.428 1.052-3.44 1.578-6.038 1.578-.88 0-1.69-.06-2.43-.177-.74-.118-1.4-.258-1.98-.419-.58-.16-1.08-.332-1.498-.515a12.81 12.81 0 0 1-.981-.467l.933-2.576c.493.28 1.245.59 2.254.934 1.009.344 2.243.515 3.702.515z"/>
        </g>
        <g>
            <circle cx="16.054" cy="16.045" r="15.938" fill="#E95420"/>
            <g fill="#FFF" transform="translate(6.811 2.827)">
                <circle cx="10.154" cy="12.307" r="1"/>
                <path d="M11.064 10.486H9.243V3.2A3.191 3.191 0 0 1 12.431.012 3.191 3.191 0 0 1 15.618 3.2V5.02h-1.821V3.2c0-.365-.143-.708-.4-.966a1.368 1.368 0 0 0-2.332.966v7.286z"/>
                <path d="M16.984 13.673a3.191 3.191 0 0 1-3.187-3.187V5.932h1.821v4.554c0 .753.613 1.366 1.366 1.366.753 0 1.366-.613 1.366-1.366V5.932h1.822v4.554c0 .851-.332 1.652-.934 2.253a3.167 3.167 0 0 1-2.254.934z"/>
                <circle cx="1.046" cy="23.236" r="1"/>
                <path d="M1.957 21.414H.136V11.396A3.191 3.191 0 0 1 3.323 8.21a3.191 3.191 0 0 1 3.188 3.187v1.822H4.689v-1.822c0-.364-.142-.708-.4-.966a1.368 1.368 0 0 0-2.332.966v10.018z"/>
                <path d="M7.877 21.87a3.191 3.191 0 0 1-3.188-3.188v-4.554h1.822v4.554c0 .753.613 1.366 1.366 1.366.753 0 1.366-.613 1.366-1.366v-4.554h1.821v4.554c0 .851-.331 1.652-.933 2.254a3.167 3.167 0 0 1-2.254.934z"/>
            </g>
        </g>
    </g>
</svg>
