<svg width="254.56" height="399.19" xmlns="http://www.w3.org/2000/svg"><path class="cls-2" style="fill:#f15d22" d="M0 0h254.56v399.19H0z"/><path class="cls-1" d="M148.45 180.19c-16.07 0-29.15 13.02-29.15 29.02v53.29a22.46 22.46 0 0 1 8.3-1.6c2.93 0 5.73.58 8.3 1.6v-53.29c0-6.89 5.63-12.49 12.55-12.49 6.92 0 12.55 5.6 12.55 12.49v12.14h16.6v-12.14c0-16-13.08-29.02-29.15-29.02zM141.13 283.22c0 7.44-6.06 13.47-13.53 13.47s-13.53-6.03-13.53-13.47 6.06-13.47 13.53-13.47 13.53 6.03 13.53 13.47zM65.05 250.68c-16.07 0-29.15 13.02-29.15 29.02v51.54a22.46 22.46 0 0 1 8.3-1.6c2.93 0 5.73.58 8.3 1.6V279.7c0-6.89 5.63-12.49 12.55-12.49 6.92 0 12.55 5.6 12.55 12.49v12.14h16.6V279.7c0-16-13.08-29.02-29.15-29.02zM57.65 351.96c0 7.39-6.02 13.39-13.45 13.39s-13.45-5.99-13.45-13.39 6.02-13.39 13.45-13.39 13.45 5.99 13.45 13.39z" style="fill:#fff"/><path class="cls-1" d="M211.01 236.86a23.6 23.6 0 0 1-3.46-.26c-1.68-.26-3.3-.71-4.84-1.33v30.43c0 6.82-5.63 12.36-12.55 12.36-6.92 0-12.55-5.55-12.55-12.36v-34.41h-16.6v34.41c0 15.83 13.08 28.72 29.15 28.72s29.15-12.88 29.15-28.72v-30.43a22.403 22.403 0 0 1-8.3 1.59zM224.48 212.4c1.41 9.18-6.41 16.96-15.63 15.56-5.74-.87-10.44-5.55-11.32-11.26-1.42-9.18 6.41-16.97 15.63-15.56 5.74.88 10.44 5.55 11.32 11.27zM127.6 305.54c-2.93 0-5.73-.58-8.3-1.6v31.89c0 6.89-5.63 12.49-12.55 12.49-6.92 0-12.55-5.6-12.55-12.49v-34.78H77.6v34.78c0 16 13.08 29.02 29.15 29.02s29.15-13.02 29.15-29.02v-31.89a22.46 22.46 0 0 1-8.3 1.6z" style="fill:#fff"/></svg>