<svg xmlns="http://www.w3.org/2000/svg" width="69" height="23" viewBox="0 0 69 23">
  <path fill="#FFF" d="M48,18.46 C48,19.46 47.9,20.384 47.7,21.234 C47.5,22.084 47.156,22.824 46.666,23.454 C46.176,24.084 45.526,24.574 44.716,24.924 C43.906,25.274 42.891,25.449 41.671,25.449 C41.0059465,25.4545292 40.3421977,25.38916 39.691,25.254 C39.091,25.124 38.561,24.969 38.101,24.789 C37.6981829,24.6374663 37.3113072,24.4465406 36.946,24.219 C36.636,24.019 36.401,23.839 36.241,23.679 L37.201,22.029 C37.381,22.189 37.606,22.364 37.876,22.554 C38.146,22.744 38.461,22.919 38.821,23.079 C39.6535826,23.4415479 40.5529292,23.6255051 41.461,23.619 C43.001,23.619 44.136,23.214 44.866,22.404 C45.596,21.594 45.961,20.209 45.961,18.249 L45.961,4.21 L48.001,4.21 L48.001,18.46 L48,18.46 Z M67.29,25 C66.91,23.98 66.55,23 66.21,22.06 C65.87,21.12 65.54,20.2 65.22,19.3 L55.11,19.3 C54.77,20.2 54.43,21.12 54.09,22.06 C53.75,23 53.4,23.98 53.04,25 L50.91,25 C51.71,22.84 52.46,20.824 53.16,18.954 C53.86,17.084 54.546,15.314 55.216,13.644 C55.886,11.974 56.551,10.369 57.211,8.829 C57.871,7.289 58.571,5.749 59.311,4.209 L61.11,4.209 C61.85,5.749 62.55,7.289 63.21,8.829 C63.87,10.369 64.535,11.974 65.205,13.644 C65.875,15.314 66.56,17.084 67.26,18.954 C67.96,20.824 68.72,22.839 69.54,24.999 L67.29,24.999 L67.29,25 Z M60.15,6.55 C59.39,8.27 58.656,10.02 57.946,11.8 C57.236,13.58 56.501,15.5 55.741,17.56 L64.591,17.56 C63.831,15.5 63.091,13.58 62.371,11.8 C61.651,10.02 60.911,8.27 60.151,6.55 L60.15,6.55 Z M87.51,25 C87.13,23.98 86.77,23 86.43,22.06 C86.09,21.12 85.76,20.2 85.44,19.3 L75.33,19.3 C74.99,20.2 74.65,21.12 74.31,22.06 C73.97,23 73.62,23.98 73.26,25 L71.13,25 C71.93,22.84 72.68,20.824 73.38,18.954 C74.08,17.084 74.766,15.314 75.436,13.644 C76.106,11.974 76.771,10.369 77.431,8.829 C78.091,7.289 78.791,5.749 79.531,4.209 L81.331,4.209 C82.071,5.749 82.771,7.289 83.431,8.829 C84.091,10.369 84.756,11.974 85.426,13.644 C86.096,15.314 86.781,17.084 87.481,18.954 C88.181,20.824 88.941,22.839 89.761,24.999 L87.51,24.999 L87.51,25 Z M80.37,6.55 C79.61,8.27 78.876,10.02 78.166,11.8 C77.456,13.58 76.721,15.5 75.961,17.56 L84.811,17.56 C84.051,15.5 83.311,13.58 82.591,11.8 C81.871,10.02 81.131,8.27 80.371,6.55 L80.37,6.55 Z M97.71,23.68 C99.33,23.68 100.59,23.384 101.49,22.794 C102.39,22.204 102.84,21.249 102.84,19.929 C102.84,19.169 102.696,18.534 102.406,18.024 C102.116,17.514 101.731,17.084 101.251,16.734 C100.771,16.384 100.221,16.084 99.601,15.834 C98.981,15.584 98.331,15.319 97.651,15.039 C96.791,14.699 96.021,14.349 95.341,13.989 C94.7095919,13.6631099 94.1244394,13.254512 93.601,12.774 C93.1327315,12.3405748 92.7598205,11.8144127 92.506,11.229 C92.256,10.649 92.131,9.969 92.131,9.189 C92.131,7.409 92.721,6.059 93.901,5.139 C95.081,4.219 96.721,3.759 98.821,3.759 C99.381,3.759 99.931,3.799 100.471,3.879 C101.011,3.959 101.516,4.064 101.986,4.194 C102.456,4.324 102.886,4.469 103.276,4.629 C103.666,4.789 103.991,4.959 104.251,5.139 L103.531,6.849 C102.951,6.449 102.246,6.129 101.416,5.889 C100.542437,5.6430707 99.6384928,5.52187152 98.731,5.529 C98.071,5.529 97.466,5.594 96.916,5.724 C96.366,5.854 95.891,6.064 95.491,6.354 C95.091,6.644 94.776,7.009 94.546,7.449 C94.316,7.889 94.201,8.419 94.201,9.039 C94.201,9.679 94.321,10.219 94.561,10.659 C94.801,11.099 95.136,11.479 95.566,11.799 C95.996,12.119 96.501,12.409 97.081,12.669 C97.7068195,12.9486522 98.3368936,13.218684 98.971,13.479 C99.791,13.819 100.566,14.159 101.296,14.499 C102.026,14.839 102.661,15.239 103.201,15.699 C103.741,16.159 104.171,16.719 104.491,17.379 C104.811,18.039 104.971,18.849 104.971,19.809 C104.971,21.689 104.316,23.099 103.006,24.039 C101.696,24.979 99.921,25.449 97.681,25.449 C96.881,25.449 96.151,25.399 95.491,25.299 C94.831,25.199 94.241,25.074 93.721,24.924 C93.201,24.774 92.761,24.619 92.401,24.459 C92.041,24.299 91.761,24.159 91.561,24.039 L92.221,22.269 C92.421,22.389 92.691,22.529 93.031,22.689 C93.371,22.849 93.771,23.004 94.231,23.154 C95.3560082,23.5116271 96.5305577,23.6888221 97.711,23.679 L97.71,23.68 Z" transform="translate(-36 -3)"/>
</svg>
