<?xml version="1.0" encoding="UTF-8"?>
<svg width="403px" height="374px" viewBox="0 0 403 374" version="1.1" xmlns="http://www.w3.org/2000/svg" xmlns:xlink="http://www.w3.org/1999/xlink">
    <!-- Generator: Sketch 59.1 (86144) - https://sketch.com -->
    <title>Artboard</title>
    <desc>Created with Sketch.</desc>
    <g id="Artboard" stroke="none" stroke-width="1" fill="none" fill-rule="evenodd">
        <g id="Slide---Jaas">
            <g id="LINES" transform="translate(70.076925, 87.624948)" stroke="#E5E5E5" stroke-linecap="square">
                <path d="M96.9392552,131.28756 L12.7269589,206.262545 L96.9392552,131.28756 Z" id="Line" fill="#CDCDCD"></path>
                <line x1="131.342829" y1="7.56471147" x2="131.342829" y2="52.1491346" id="Line" fill="#D8D8D8"></line>
                <line x1="109.666214" y1="1.97069453" x2="0.372310081" y2="197.417609" id="Line" fill="#D9D9D9"></line>
                <line x1="155.199101" y1="0.372403777" x2="263.057968" y2="196.672801" id="Line" fill="#D9D9D9"></line>
                <line x1="178.137436" y1="98.6944444" x2="238.04913" y2="98.6944444" id="Line" fill="#D9D9D9"></line>
                <line x1="24.7635001" y1="238.544872" x2="238.04913" y2="238.544872" id="Line" fill="#D9D9D9"></line>
                <line x1="167.980263" y1="129.371203" x2="251.820249" y2="206.262545" id="Line" fill="#D9D9D9"></line>
                <line x1="154.671291" y1="175.376912" x2="244.659173" y2="123.349411" id="Line" fill="#D9D9D9"></line>
                <line x1="157.067759" y1="198.552126" x2="240.636733" y2="223.898079" id="Line" fill="#D9D9D9"></line>
                <line x1="100.351355" y1="199.405609" x2="22.6309376" y2="224.642887" id="Line" fill="#D9D9D9"></line>
            </g>
            <g id="Group" transform="translate(118.579723, 112.465941)" fill="#D9D9D9">
                <ellipse id="Oval-6" cx="82.8400311" cy="4.8412491" rx="4.84003106" ry="4.8412491"></ellipse>
                <ellipse id="Oval-6" cx="6.88877448" cy="74.8531592" rx="4.84003106" ry="4.8412491"></ellipse>
                <ellipse id="Oval-6" cx="6.14415432" cy="143.375454" rx="4.84003106" ry="4.8412491"></ellipse>
                <ellipse id="Oval-6" cx="5.39953415" cy="189.553523" rx="4.84003106" ry="4.8412491"></ellipse>
                <ellipse id="Oval-6" cx="82.8853249" cy="213.418172" rx="4.84003106" ry="4.8412491"></ellipse>
                <ellipse id="Oval-6" cx="159.535908" cy="189.553523" rx="4.84003106" ry="4.8412491"></ellipse>
                <ellipse id="Oval-6" cx="161.769768" cy="143.375454" rx="4.84003106" ry="4.8412491"></ellipse>
                <ellipse id="Oval-6" cx="159.535908" cy="119.541613" rx="4.84003106" ry="4.8412491"></ellipse>
                <ellipse id="Oval-6" cx="161.025148" cy="74.0540139" rx="4.84003106" ry="4.8412491"></ellipse>
            </g>
            <g id="CHARM" transform="translate(0.000000, 278.558025)">
                <ellipse id="Oval-1" stroke="#D9D9D9" fill="#FFFFFF" cx="47.2833803" cy="47.2952797" rx="46.7833803" ry="46.7952797"></ellipse>
                <ellipse id="Oval-1" fill="#D9D9D9" cx="47" cy="47.4475111" rx="22" ry="22.0055365"></ellipse>
            </g>
            <g id="CHARM" transform="translate(169.028777, 248.765723)">
                <ellipse id="Oval-1" stroke="#D9D9D9" fill="#FFFFFF" cx="29.7848065" cy="29.7923022" rx="29.2848065" ry="29.2923022"></ellipse>
                <ellipse id="Oval-1" fill="#D9D9D9" cx="30" cy="30.0055365" rx="22" ry="22.0055365"></ellipse>
            </g>
            <g id="CHARM" transform="translate(308.272747, 278.558025)">
                <ellipse id="Oval-1" stroke="#D9D9D9" fill="#FFFFFF" cx="47.2833803" cy="47.2952797" rx="46.7833803" ry="46.7952797"></ellipse>
                <ellipse id="Oval-1" fill="#D9D9D9" cx="48" cy="47.0055365" rx="22" ry="22.0055365"></ellipse>
            </g>
            <g id="CHARM" transform="translate(308.272747, 139.279013)">
                <ellipse id="Oval-1" stroke="#D9D9D9" fill="#FFFFFF" cx="47.2833803" cy="47.2952797" rx="46.7833803" ry="46.7952797"></ellipse>
                <ellipse id="Oval-1" fill="#D9D9D9" cx="48" cy="47.0055365" rx="22" ry="22.0055365"></ellipse>
            </g>
            <g id="CHARM" transform="translate(154.136374, 139.279013)">
                <ellipse id="Oval-1" stroke="#D9D9D9" fill="#FFFFFF" cx="47.2833803" cy="47.2952797" rx="46.7833803" ry="46.7952797"></ellipse>
                <ellipse id="Oval-1" fill="#D9D9D9" cx="48" cy="47.0055365" rx="22" ry="22.0055365"></ellipse>
            </g>
            <g id="CHARM" transform="translate(154.136374, 0.000000)">
                <ellipse id="Oval-1" stroke="#D9D9D9" fill="#FFFFFF" cx="47.2833803" cy="47.2952797" rx="46.7833803" ry="46.7952797"></ellipse>
                <ellipse id="Oval-1" fill="#D9D9D9" cx="48" cy="47.0055365" rx="22" ry="22.0055365"></ellipse>
            </g>
        </g>
    </g>
</svg>