<svg width="403" height="374" xmlns="http://www.w3.org/2000/svg"><g fill="none" fill-rule="evenodd"><g stroke="#E5E5E5" stroke-linecap="square"><path d="M167.0161802 218.912508l-84.2122963 74.974985 84.2122963-74.974985z" fill="#CDCDCD"/><path fill="#D8D8D8" d="M201.419754 95.18965947v44.58442313"/><path fill="#D9D9D9" d="M179.743139 89.59564253L70.44923508 285.042557M225.276026 87.99735178L333.134893 284.297749M248.214361 186.3193924h59.911694M94.8404251 326.16982H308.126055M238.057188 216.996151l83.839986 76.891342M224.748216 263.00186l89.987882-52.027501M227.144684 286.177074l83.568974 25.345953M170.42828 287.030557l-77.7204174 25.237278"/></g><g transform="translate(118.579723 112.465941)" fill="#D9D9D9"><ellipse cx="82.8400311" cy="4.8412491" rx="4.84003106" ry="4.8412491"/><ellipse cx="6.88877448" cy="74.8531592" rx="4.84003106" ry="4.8412491"/><ellipse cx="6.14415432" cy="143.375454" rx="4.84003106" ry="4.8412491"/><ellipse cx="5.39953415" cy="189.553523" rx="4.84003106" ry="4.8412491"/><ellipse cx="82.8853249" cy="213.418172" rx="4.84003106" ry="4.8412491"/><ellipse cx="159.535908" cy="189.553523" rx="4.84003106" ry="4.8412491"/><ellipse cx="161.769768" cy="143.375454" rx="4.84003106" ry="4.8412491"/><ellipse cx="159.535908" cy="119.541613" rx="4.84003106" ry="4.8412491"/><ellipse cx="161.025148" cy="74.0540139" rx="4.84003106" ry="4.8412491"/></g><g transform="translate(0 278.558025)"><ellipse stroke="#D9D9D9" fill="#FFF" cx="47.2833803" cy="47.2952797" rx="46.7833803" ry="46.7952797"/><ellipse fill="#D9D9D9" cx="47" cy="47.4475111" rx="22" ry="22.0055365"/></g><g transform="translate(169.028777 248.765723)"><ellipse stroke="#D9D9D9" fill="#FFF" cx="29.7848065" cy="29.7923022" rx="29.2848065" ry="29.2923022"/><ellipse fill="#D9D9D9" cx="30" cy="30.0055365" rx="22" ry="22.0055365"/></g><g transform="translate(308.272747 278.558025)"><ellipse stroke="#D9D9D9" fill="#FFF" cx="47.2833803" cy="47.2952797" rx="46.7833803" ry="46.7952797"/><ellipse fill="#D9D9D9" cx="48" cy="47.0055365" rx="22" ry="22.0055365"/></g><g transform="translate(308.272747 139.279013)"><ellipse stroke="#D9D9D9" fill="#FFF" cx="47.2833803" cy="47.2952797" rx="46.7833803" ry="46.7952797"/><ellipse fill="#D9D9D9" cx="48" cy="47.0055365" rx="22" ry="22.0055365"/></g><g transform="translate(154.136374 139.279013)"><ellipse stroke="#D9D9D9" fill="#FFF" cx="47.2833803" cy="47.2952797" rx="46.7833803" ry="46.7952797"/><ellipse fill="#D9D9D9" cx="48" cy="47.0055365" rx="22" ry="22.0055365"/></g><g transform="translate(154.136374)"><ellipse stroke="#D9D9D9" fill="#FFF" cx="47.2833803" cy="47.2952797" rx="46.7833803" ry="46.7952797"/><ellipse fill="#D9D9D9" cx="48" cy="47.0055365" rx="22" ry="22.0055365"/></g></g></svg>
