<svg width="100" height="100" viewBox="0 0 100 100" fill="none" xmlns="http://www.w3.org/2000/svg">
<g clip-path="url(#clip0_1_4)">
<path fill-rule="evenodd" clip-rule="evenodd" d="M50 0C22.3852 0 0 22.3828 0 49.9961C0 77.6094 22.3852 100 50 100C77.6133 100 100 77.6094 100 49.9961C100 22.3828 77.6133 0 50 0Z" fill="#DD4814"/>
<path d="M40.8982 15.6378C31.5757 15.6378 23.9876 23.1911 23.9876 32.473V62.3726C25.4786 61.7809 27.1029 61.4444 28.8027 61.4444C30.5024 61.4444 32.1268 61.7809 33.6177 62.3726V32.473C33.6177 28.476 36.8838 25.2273 40.8982 25.2273C44.9127 25.2273 48.1788 28.476 48.1788 32.473V39.5157H57.8088V32.473C57.8088 23.1911 50.2208 15.6378 40.8982 15.6378Z" fill="white"/>
<path d="M36.6053 74.3928C36.6053 78.6799 33.113 82.1606 28.8027 82.1606C24.4923 82.1606 21 78.6857 21 74.3928C21 70.0999 24.4923 66.6249 28.8027 66.6249C33.113 66.6249 36.6053 70.0999 36.6053 74.3928Z" fill="white"/>
<path d="M77.185 46.5352C75.4852 46.5352 72.3699 46.5352 72.3699 46.5352V65.0354C72.3699 69.0324 69.1039 72.2811 65.0894 72.2811C61.0749 72.2811 57.8088 69.0324 57.8088 65.0354V44.8587H48.1788V65.0354C48.1788 74.3173 55.7668 81.8706 65.0894 81.8706C74.412 81.8706 82 74.3173 82 65.0354V46.5352C82 46.5352 78.8847 46.5352 77.185 46.5352Z" fill="white"/>
</g>
<defs>
<clipPath id="clip0_1_4">
<rect width="100" height="100" fill="white"/>
</clipPath>
</defs>
</svg>
