<?xml version="1.0" encoding="utf-8"?>
<!-- Generator: Adobe Illustrator 16.0.4, SVG Export Plug-In . SVG Version: 6.00 Build 0)  -->
<!DOCTYPE svg PUBLIC "-//W3C//DTD SVG 1.1//EN" "http://www.w3.org/Graphics/SVG/1.1/DTD/svg11.dtd">
<svg version="1.1" id="artwork" xmlns="http://www.w3.org/2000/svg" xmlns:xlink="http://www.w3.org/1999/xlink" x="0px" y="0px"
	 width="34px" height="34px" viewBox="0 0 34 34" enable-background="new 0 0 34 34" xml:space="preserve">
<g>
	<circle fill="#E95420" cx="17" cy="16.999" r="16"/>
	<circle fill="#FFFFFF" cx="11.24" cy="26.457" r="1.275"/>
	<path fill="#FFFFFF" d="M12.373,24.039h-2.268V9.961c0-2.391,1.943-4.334,4.334-4.334c2.389,0,4.334,1.943,4.334,4.334v2.559
		h-2.268V9.961c0-1.139-0.928-2.066-2.066-2.066s-2.066,0.928-2.066,2.066V24.039z"/>
	<path fill="#FFFFFF" d="M20.841,24.533c-2.392,0-4.335-1.943-4.335-4.332V13.8h2.268v6.401c0,1.139,0.926,2.064,2.067,2.064
		c1.139,0,2.066-0.926,2.066-2.064V13.8h2.268v6.401C25.175,22.589,23.229,24.533,20.841,24.533z"/>
</g>
</svg>