<svg xmlns="http://www.w3.org/2000/svg" width="24" height="24" viewBox="0 0 24 24">
  <g fill="none" fill-rule="evenodd">
    <circle cx="12" cy="12" r="12" fill="#F7F7F7"/>
    <g fill-rule="nonzero" transform="translate(4 4)">
      <path fill="#326DE6" d="M14.600302,3.43978068 C14.5088185,3.14703338 14.289258,2.90917621 14.0148074,2.76280256 L8.43431218,0.0914835286 C8.28793854,0.0182967057 8.12326819,0 7.97689454,0 C7.83052089,0 7.66585054,0 7.5194769,0.0365934114 L1.93898165,2.72620915 C1.66453106,2.85428609 1.4632673,3.09214327 1.39008048,3.40318726 L0.0178275498,9.42280345 C-0.0370625674,9.73384745 0.0361242555,10.0448914 0.219091313,10.3010453 L4.07969622,15.0764855 C4.29925669,15.296046 4.61030069,15.4424196 4.92134468,15.4607163 L11.0690378,15.4607163 C11.3983785,15.4973097 11.7094225,15.3509361 11.9106863,15.0764855 L15.7712912,10.3010453 C15.9542582,10.0448914 16.0274451,9.73384745 15.9908516,9.42280345 L14.600302,3.43978068 Z"/>
      <path fill="#FFF" d="M13.7403568,9.18494627 L13.7403568,9.18494627 C13.7220601,9.18494627 13.7037634,9.18494627 13.7037634,9.16664957 C13.7037634,9.14835286 13.66717,9.14835286 13.6305766,9.14835286 C13.5573898,9.13005616 13.484203,9.13005616 13.4110161,9.13005616 C13.3744227,9.13005616 13.3378293,9.13005616 13.3012359,9.11175945 L13.2829392,9.11175945 C13.0816754,9.09346274 12.862115,9.05686933 12.6608512,9.00197922 C12.6059611,8.98368251 12.551071,8.92879239 12.5327743,8.87390228 C12.551071,8.87390228 12.5327743,8.87390228 12.5327743,8.87390228 L12.5327743,8.87390228 L12.3864006,8.83730886 C12.4595874,8.3067044 12.422994,7.75780323 12.3132138,7.22719876 C12.1851369,6.6965943 11.9655764,6.18428653 11.6728291,5.72686889 L11.7826093,5.61708866 L11.7826093,5.61708866 L11.7826093,5.59879195 C11.7826093,5.54390183 11.800906,5.47071501 11.8374994,5.4341216 C12.0021698,5.28774795 12.1668402,5.17796772 12.3498072,5.06818749 L12.3498072,5.06818749 C12.3864006,5.04989078 12.422994,5.03159407 12.4595874,5.01329737 C12.5327743,4.97670396 12.5876644,4.94011055 12.6608512,4.90351713 C12.6791479,4.88522043 12.6974446,4.88522043 12.7157413,4.86692372 C12.734038,4.84862702 12.7157413,4.84862702 12.7157413,4.83033031 L12.7157413,4.83033031 C12.8804117,4.70225337 12.9170051,4.4826929 12.7889281,4.31802255 C12.734038,4.24483573 12.6242578,4.18994561 12.5327743,4.18994561 C12.4412907,4.18994561 12.3498072,4.22653902 12.2766204,4.28142914 L12.2766204,4.28142914 L12.2583237,4.29972585 C12.240027,4.31802255 12.2217303,4.33631926 12.2034336,4.33631926 C12.1485434,4.39120937 12.0936533,4.44609949 12.0570599,4.50098961 C12.0387632,4.53758302 12.0021698,4.55587973 11.9838731,4.57417643 L11.9838731,4.57417643 C11.8557962,4.72055008 11.6911258,4.86692372 11.5264555,4.97670396 C11.489862,4.99500066 11.4532686,5.01329737 11.4166752,5.01329737 C11.3983785,5.01329737 11.3617851,5.01329737 11.3434884,4.99500066 L11.3251917,4.99500066 L11.178818,5.08648419 C11.0324444,4.94011055 10.867774,4.7937369 10.7214004,4.64736325 C10.0444223,4.11675879 9.20277382,3.78741808 8.34282865,3.69593456 L8.32453195,3.54956091 L8.32453195,3.54956091 L8.32453195,3.56785762 C8.26964183,3.5312642 8.25134513,3.47637409 8.23304842,3.42148397 C8.23304842,3.22022021 8.23304842,3.01895644 8.26964183,2.79939598 L8.26964183,2.78109927 C8.26964183,2.74450586 8.28793854,2.70791245 8.28793854,2.67131904 C8.30623524,2.59813221 8.30623524,2.52494539 8.32453195,2.45175857 L8.32453195,2.34197833 L8.32453195,2.34197833 C8.34282865,2.15901128 8.19645501,1.97604422 8.01348795,1.95774751 C7.90370772,1.93945081 7.79392748,1.99434092 7.70244395,2.08582445 C7.62925713,2.15901128 7.59266372,2.2504948 7.59266372,2.34197833 L7.59266372,2.34197833 L7.59266372,2.43346186 C7.59266372,2.50664868 7.61096043,2.57983551 7.62925713,2.65302233 C7.64755384,2.68961574 7.64755384,2.72620915 7.64755384,2.76280256 L7.64755384,2.78109927 C7.68414725,2.98236303 7.68414725,3.1836268 7.68414725,3.40318726 C7.66585054,3.45807738 7.64755384,3.5129675 7.59266372,3.54956091 L7.59266372,3.58615432 L7.59266372,3.58615432 L7.57436701,3.73252797 C7.37310325,3.75082467 7.17183949,3.78741808 6.95227902,3.8240115 C6.09233385,4.00697855 5.3055755,4.4643962 4.70178422,5.1047809 L4.59200398,5.03159407 L4.57370728,5.03159407 C4.55541057,5.03159407 4.53711386,5.04989078 4.50052045,5.04989078 C4.46392704,5.04989078 4.42733363,5.03159407 4.39074022,5.01329737 C4.22606987,4.88522043 4.06139951,4.73884678 3.93332257,4.59247314 L3.93332257,4.59247314 C3.91502587,4.55587973 3.87843246,4.53758302 3.86013575,4.51928631 C3.80524563,4.4643962 3.76865222,4.40950608 3.71376211,4.35461596 C3.6954654,4.33631926 3.67716869,4.33631926 3.65887199,4.31802255 C3.64057528,4.29972585 3.64057528,4.29972585 3.64057528,4.29972585 L3.64057528,4.29972585 C3.56738846,4.24483573 3.47590493,4.20824232 3.3844214,4.20824232 C3.27464117,4.20824232 3.18315764,4.24483573 3.12826752,4.33631926 C3.01848729,4.50098961 3.0550807,4.72055008 3.20145435,4.84862702 L3.20145435,4.84862702 C3.21975105,4.84862702 3.21975105,4.86692372 3.21975105,4.86692372 C3.21975105,4.86692372 3.25634446,4.90351713 3.27464117,4.90351713 C3.32953129,4.94011055 3.40271811,4.97670396 3.47590493,5.01329737 C3.51249834,5.03159407 3.54909175,5.04989078 3.58568517,5.06818749 L3.58568517,5.06818749 C3.76865222,5.17796772 3.95161928,5.28774795 4.09799293,5.4341216 C4.13458634,5.47071501 4.17117975,5.54390183 4.15288304,5.59879195 L4.15288304,5.58049525 L4.15288304,5.58049525 L4.26266328,5.69027548 C4.24436657,5.72686889 4.22606987,5.7451656 4.20777316,5.78175901 C3.64057528,6.67829759 3.40271811,7.73950652 3.56738846,8.78241875 L3.42101481,8.81901216 L3.42101481,8.81901216 C3.42101481,8.83730886 3.40271811,8.83730886 3.40271811,8.83730886 C3.3844214,8.89219898 3.32953129,8.92879239 3.27464117,8.9653858 C3.07337741,9.02027592 2.87211364,9.05686933 2.65255317,9.07516604 L2.65255317,9.07516604 C2.61595976,9.07516604 2.57936635,9.07516604 2.54277294,9.09346274 C2.46958612,9.09346274 2.39639929,9.11175945 2.32321247,9.11175945 C2.30491577,9.11175945 2.28661906,9.13005616 2.25002565,9.13005616 C2.23172894,9.13005616 2.23172894,9.13005616 2.21343224,9.14835286 L2.21343224,9.14835286 C2.01216847,9.18494627 1.88409153,9.36791333 1.92068495,9.56917709 C1.92068495,9.56917709 1.92068495,9.56917709 1.92068495,9.56917709 C1.95727836,9.73384745 2.12194871,9.84362768 2.28661906,9.82533097 C2.32321247,9.82533097 2.34150918,9.82533097 2.37810259,9.80703427 L2.37810259,9.80703427 C2.39639929,9.80703427 2.39639929,9.80703427 2.39639929,9.78873756 C2.39639929,9.77044086 2.45128941,9.78873756 2.46958612,9.78873756 C2.54277294,9.77044086 2.61595976,9.73384745 2.67084988,9.71555074 C2.70744329,9.69725403 2.7440367,9.67895733 2.78063011,9.67895733 L2.79892682,9.67895733 C3.00019058,9.60577051 3.18315764,9.55088039 3.40271811,9.51428698 L3.42101481,9.51428698 C3.47590493,9.51428698 3.53079505,9.53258368 3.56738846,9.56917709 C3.58568517,9.56917709 3.58568517,9.5874738 3.58568517,9.5874738 L3.58568517,9.5874738 L3.75035552,9.56917709 C4.0248061,10.4108256 4.53711386,11.1609905 5.25068539,11.7098917 C5.41535574,11.8379686 5.56172938,11.9477488 5.74469644,12.0392324 L5.65321291,12.1673093 L5.65321291,12.1673093 C5.65321291,12.185606 5.67150962,12.185606 5.67150962,12.185606 C5.70810303,12.2404961 5.70810303,12.313683 5.68980632,12.3685731 C5.6166195,12.5515401 5.50683927,12.7345072 5.39705903,12.8991775 L5.39705903,12.9174742 C5.37876233,12.9540677 5.36046562,12.9723644 5.32387221,13.0089578 C5.2872788,13.0455512 5.25068539,13.118738 5.19579527,13.1919248 C5.17749856,13.2102215 5.17749856,13.2285182 5.15920186,13.2468149 C5.15920186,13.2468149 5.15920186,13.2651117 5.14090515,13.2651117 L5.14090515,13.2651117 C5.04942162,13.4480787 5.12260845,13.6676392 5.2872788,13.7591227 C5.32387221,13.7774194 5.37876233,13.7957161 5.41535574,13.7957161 C5.56172938,13.7957161 5.68980632,13.7042326 5.76299315,13.5761556 L5.76299315,13.5761556 C5.76299315,13.5761556 5.76299315,13.5578589 5.78128985,13.5578589 C5.78128985,13.5395622 5.79958656,13.5212655 5.81788326,13.5029688 C5.83617997,13.429782 5.87277338,13.3748919 5.89107009,13.3017051 L5.9276635,13.1919248 L5.9276635,13.1919248 C5.98255362,12.9906611 6.07403714,12.807694 6.16552067,12.6247269 C6.20211408,12.5698368 6.2570042,12.5332434 6.31189432,12.5149467 C6.33019102,12.5149467 6.33019102,12.5149467 6.33019102,12.49665 L6.33019102,12.49665 L6.40337785,12.3502764 C6.91568561,12.5515401 7.44629007,12.6430237 7.99519125,12.6430237 C8.32453195,12.6430237 8.65387265,12.6064302 8.98321335,12.5149467 C9.18447712,12.4783533 9.38574088,12.4051665 9.56870794,12.3502764 L9.64189476,12.4783533 L9.64189476,12.4783533 C9.66019147,12.4783533 9.66019147,12.4783533 9.66019147,12.49665 C9.71508158,12.5149467 9.7699717,12.5515401 9.80656511,12.6064302 C9.89804864,12.7893973 9.98953217,12.9723644 10.0444223,13.1736281 L10.0444223,13.1919248 L10.0810157,13.3017051 C10.0993124,13.3748919 10.1176091,13.4480787 10.1542025,13.5029688 C10.1724992,13.5212655 10.1724992,13.5395622 10.1907959,13.5578589 C10.1907959,13.5578589 10.1907959,13.5761556 10.2090926,13.5761556 L10.2090926,13.5761556 C10.2822795,13.7042326 10.4103564,13.7957161 10.55673,13.7957161 C10.6116202,13.7957161 10.6482136,13.7774194 10.7031037,13.7591227 C10.7762905,13.7225293 10.8494773,13.6493425 10.867774,13.5578589 C10.8860708,13.4663754 10.8860708,13.3748919 10.8494773,13.2834084 L10.8494773,13.2834084 C10.8494773,13.2651117 10.8311806,13.2651117 10.8311806,13.2651117 C10.8311806,13.2468149 10.8128839,13.2285182 10.7945872,13.2102215 C10.7579938,13.1370347 10.7214004,13.0821446 10.6665103,13.0272545 C10.6482136,12.9906611 10.6299169,12.9723644 10.5933235,12.9357709 L10.5933235,12.8991775 C10.4652465,12.7345072 10.373763,12.5515401 10.3005762,12.3685731 C10.2822795,12.313683 10.2822795,12.2404961 10.3188729,12.185606 C10.3188729,12.1673093 10.3371696,12.1673093 10.3371696,12.1673093 L10.3371696,12.1673093 L10.2822795,12.0209357 C11.2154115,11.4537378 11.928983,10.5754959 12.2583237,9.53258368 L12.4046973,9.55088039 L12.4046973,9.55088039 C12.422994,9.55088039 12.422994,9.53258368 12.422994,9.53258368 C12.4595874,9.49599027 12.5144776,9.47769357 12.5693677,9.47769357 L12.5876644,9.47769357 C12.7889281,9.51428698 12.9901919,9.56917709 13.173159,9.64236392 L13.1914557,9.64236392 C13.2280491,9.66066062 13.2646425,9.67895733 13.3012359,9.67895733 C13.3744227,9.71555074 13.4293128,9.75214415 13.5024997,9.77044086 C13.5207964,9.77044086 13.5390931,9.78873756 13.5756865,9.78873756 C13.5939832,9.78873756 13.5939832,9.78873756 13.6122799,9.80703427 L13.6122799,9.80703427 C13.6488733,9.82533097 13.66717,9.82533097 13.7037634,9.82533097 C13.8684338,9.82533097 14.0148074,9.71555074 14.0696975,9.56917709 C14.0514008,9.36791333 13.9050272,9.22153969 13.7403568,9.18494627 Z M8.45260889,8.6177484 L7.95859783,8.85560557 L7.46458678,8.6177484 L7.33650984,8.08714393 L7.68414725,7.64802299 L8.23304842,7.64802299 L8.58068583,8.08714393 L8.45260889,8.6177484 Z M11.4349719,7.42846252 C11.5264555,7.81269334 11.5447522,8.19692416 11.5081587,8.58115498 L9.7699717,8.08714393 L9.7699717,8.08714393 C9.60530135,8.05055052 9.51381782,7.88588017 9.55041123,7.72120982 C9.56870794,7.6663197 9.58700464,7.62972629 9.62359806,7.59313288 L10.995851,6.34895689 C11.1971147,6.67829759 11.3434884,7.0442317 11.4349719,7.42846252 Z M10.4469498,5.67197877 L8.94661994,6.73318771 C8.818543,6.80637453 8.63557595,6.78807782 8.54409242,6.66000088 C8.50749901,6.62340747 8.4892023,6.58681406 8.4892023,6.53192394 L8.37942207,4.68395667 C9.18447712,4.77544019 9.89804864,5.1230776 10.4469498,5.67197877 L10.4469498,5.67197877 Z M7.13524608,4.73884678 L7.50118019,4.66565996 L7.40969666,6.49533053 L7.40969666,6.49533053 C7.40969666,6.66000088 7.26332302,6.78807782 7.09865267,6.78807782 C7.04376255,6.78807782 7.00716914,6.76978112 6.95227902,6.75148441 L5.43365244,5.67197877 C5.90936679,5.21456113 6.49486138,4.88522043 7.13524608,4.73884678 Z M4.90304798,6.34895689 L6.2570042,7.55653946 L6.2570042,7.55653946 C6.38508114,7.6663197 6.40337785,7.84928676 6.29359761,7.9773637 C6.2570042,8.03225381 6.22041079,8.05055052 6.14722397,8.06884722 L4.37244351,8.58115498 C4.3175534,7.81269334 4.50052045,7.025935 4.90304798,6.34895689 Z M4.59200398,9.44110015 L6.40337785,9.13005616 C6.54975149,9.13005616 6.69612514,9.22153969 6.71442184,9.36791333 C6.73271855,9.42280345 6.73271855,9.49599027 6.69612514,9.55088039 L6.69612514,9.55088039 L6.00085032,11.2341773 C5.36046562,10.8133531 4.84815786,10.1729684 4.59200398,9.44110015 Z M8.74535618,11.7098917 C8.4892023,11.7647818 8.23304842,11.8013752 7.95859783,11.8013752 C7.57436701,11.8013752 7.17183949,11.7281884 6.80590537,11.6184081 L7.70244395,9.99000133 C7.79392748,9.88022109 7.94030113,9.84362768 8.06837807,9.9168145 C8.12326819,9.95340791 8.1598616,9.99000133 8.21475171,10.0448914 L8.21475171,10.0448914 L9.09299359,11.6367048 C8.98321335,11.6550015 8.87343312,11.6732983 8.74535618,11.7098917 Z M10.9775543,10.1180783 C10.7031037,10.5571992 10.3188729,10.94143 9.87975194,11.2158806 L9.16618041,9.49599027 C9.129587,9.34961663 9.20277382,9.20324298 9.33085076,9.14835286 C9.38574088,9.13005616 9.440631,9.11175945 9.49552111,9.11175945 L11.3251917,9.42280345 C11.2337082,9.67895733 11.1239279,9.9168145 10.9775543,10.1180783 Z"/>
    </g>
  </g>
</svg>
