<svg xmlns="http://www.w3.org/2000/svg" width="24" height="24" viewBox="0 0 24 24">
  <g fill="none" fill-rule="evenodd">
    <circle cx="12" cy="12" r="12" fill="#F7F7F7"/>
    <g transform="translate(4 8)">
      <path fill="#252F3E" fill-rule="nonzero" d="M4.50895652,3.46919463 C4.50895652,3.66576461 4.53024225,3.82514568 4.56749227,3.94202514 C4.61006373,4.05890459 4.66327805,4.18640944 4.73777809,4.3245397 C4.76438525,4.36704132 4.77502812,4.40954294 4.77502812,4.44673186 C4.77502812,4.49985888 4.74309952,4.5529859 4.67392091,4.60611293 L4.33867071,4.82924643 C4.29077782,4.86112264 4.24288493,4.87706075 4.20031348,4.87706075 C4.14709916,4.87706075 4.09388484,4.85049724 4.04067052,4.80268291 C3.96617048,4.72299238 3.9023133,4.63798914 3.84909898,4.5529859 C3.79588466,4.46266996 3.74267034,4.36172862 3.68413459,4.23953647 C3.26906291,4.72830508 2.74756259,4.97268939 2.11963363,4.97268939 C1.67263336,4.97268939 1.31609743,4.84518453 1.05534727,4.59017482 C0.794597108,4.33516511 0.661561312,3.99515216 0.661561312,3.57013597 C0.661561312,3.11855627 0.821204267,2.75197981 1.14581161,2.47571929 C1.47041895,2.19945877 1.90145493,2.06132851 2.44956241,2.06132851 C2.63049109,2.06132851 2.8167412,2.07726661 3.01363418,2.10383013 C3.21052716,2.13039364 3.41274157,2.17289526 3.62559884,2.22070958 L3.62559884,1.83288231 C3.62559884,1.42911693 3.54045593,1.14754371 3.37549154,0.982849933 C3.20520573,0.81815616 2.91784841,0.738465625 2.50809816,0.738465625 C2.32184804,0.738465625 2.1302765,0.759716435 1.93338352,0.807530756 C1.73649054,0.855345077 1.544919,0.913784802 1.35866888,0.988162635 C1.27352597,1.02535155 1.20966879,1.04660236 1.17241877,1.05722777 C1.13516875,1.06785317 1.10856159,1.07316587 1.08727586,1.07316587 C1.01277581,1.07316587 0.97552579,1.02003885 0.97552579,0.9084721 L0.97552579,0.648149685 C0.97552579,0.563146448 0.986168654,0.49939402 1.01277581,0.462205104 C1.03938297,0.425016187 1.08727586,0.387827271 1.1617759,0.350638354 C1.34802602,0.255009712 1.57152616,0.175319177 1.83227631,0.111566749 C2.09302647,0.0425016187 2.36974093,0.0106254047 2.66241968,0.0106254047 C3.29567007,0.0106254047 3.75863464,0.154068368 4.05663482,0.440954294 C4.34931357,0.72784022 4.49831366,1.16348181 4.49831366,1.74787907 L4.49831366,3.46919463 L4.50895652,3.46919463 Z M2.3484552,4.27672538 C2.52406245,4.27672538 2.70499113,4.24484917 2.89656268,4.18109674 C3.08813423,4.11734431 3.25842004,4.00046486 3.4020987,3.84108379 C3.48724161,3.74014245 3.5510988,3.6285757 3.58302739,3.50107084 C3.61495598,3.37356599 3.6362417,3.21949762 3.6362417,3.03886574 L3.6362417,2.81573224 C3.48192018,2.77854332 3.31695579,2.74666711 3.14666998,2.7254163 C2.97638416,2.70416549 2.81141977,2.69354009 2.64645538,2.69354009 C2.28991945,2.69354009 2.02916929,2.76260522 1.85356204,2.90604818 C1.67795479,3.04949114 1.59281188,3.25137383 1.59281188,3.51700895 C1.59281188,3.76670596 1.65666906,3.95265054 1.78970486,4.0801554 C1.91741922,4.21297296 2.10366934,4.27672538 2.3484552,4.27672538 Z M6.62156496,4.85049724 C6.52577919,4.85049724 6.46192201,4.83455913 6.41935055,4.79737021 C6.3767791,4.765494 6.33952907,4.69111617 6.30760048,4.59017482 L5.057064,0.483455913 C5.02513541,0.377201866 5.00917112,0.308136736 5.00917112,0.270947819 C5.00917112,0.185944582 5.05174257,0.138130261 5.13688548,0.138130261 L5.6583858,0.138130261 C5.759493,0.138130261 5.82867162,0.154068368 5.86592164,0.191257284 C5.9084931,0.223133498 5.94042169,0.297511331 5.97235028,0.398452675 L6.86635082,3.91546162 L7.69649419,0.398452675 C7.72310135,0.292198629 7.75502994,0.223133498 7.79760139,0.191257284 C7.84017285,0.15938107 7.91467289,0.138130261 8.01045867,0.138130261 L8.43617321,0.138130261 C8.53728042,0.138130261 8.60645903,0.154068368 8.64903049,0.191257284 C8.69160194,0.223133498 8.72885196,0.297511331 8.75013769,0.398452675 L9.59092392,3.95796324 L10.5115316,0.398452675 C10.5434602,0.292198629 10.5807102,0.223133498 10.6179603,0.191257284 C10.6605317,0.15938107 10.7297103,0.138130261 10.8254961,0.138130261 L11.3203893,0.138130261 C11.4055322,0.138130261 11.4534251,0.18063188 11.4534251,0.270947819 C11.4534251,0.297511331 11.4481036,0.324074843 11.4427822,0.355951057 C11.4374608,0.387827271 11.4268179,0.430328889 11.4055322,0.488768615 L10.1230671,4.59548752 C10.0911385,4.70174157 10.0538885,4.7708067 10.011317,4.80268291 C9.96874558,4.83455913 9.89956697,4.85580994 9.80910263,4.85580994 L9.35145949,4.85580994 C9.25035228,4.85580994 9.18117367,4.83987183 9.13860222,4.80268291 C9.09603076,4.765494 9.05878074,4.69642887 9.03749501,4.59017482 L8.21267308,1.16348181 L7.39317258,4.58486212 C7.36656542,4.69111617 7.33463683,4.7601813 7.29206537,4.79737021 C7.24949392,4.83455913 7.17499387,4.85049724 7.0792081,4.85049724 L6.62156496,4.85049724 Z M13.4596049,4.9939402 C13.1828904,4.9939402 12.9061759,4.96206398 12.6401044,4.89831156 C12.3740328,4.83455913 12.1664969,4.765494 12.0281397,4.68580346 C11.9429968,4.63798914 11.884461,4.58486212 11.8631753,4.5370478 C11.8418896,4.48923348 11.8312467,4.43610645 11.8312467,4.38829213 L11.8312467,4.11734431 C11.8312467,4.00577756 11.8738182,3.95265054 11.9536397,3.95265054 C11.9855682,3.95265054 12.0174968,3.95796324 12.0494254,3.96858865 C12.081354,3.97921405 12.1292469,4.00046486 12.1824612,4.02171567 C12.3633899,4.10140621 12.5602829,4.16515863 12.7678187,4.20766025 C12.980676,4.25016187 13.1882118,4.27141268 13.4010691,4.27141268 C13.7363193,4.27141268 13.9970695,4.21297296 14.1779982,4.0960935 C14.3589268,3.97921405 14.4547126,3.80920758 14.4547126,3.59138678 C14.4547126,3.44263112 14.4068197,3.32043896 14.311034,3.21949762 C14.2152482,3.11855627 14.0343195,3.02824033 13.7735693,2.9432371 L13.0019617,2.70416549 C12.6134972,2.58197334 12.3261399,2.40134146 12.1505326,2.16226985 C11.9749254,1.92851095 11.884461,1.66818853 11.884461,1.39192801 C11.884461,1.16879451 11.9323539,0.972224528 12.0281397,0.802218053 C12.1239255,0.632211578 12.2516398,0.483455913 12.4112828,0.366576461 C12.5709257,0.244384308 12.7518544,0.154068368 12.9647117,0.0903159398 C13.177569,0.0265635117 13.4010691,0 13.6352121,0 C13.7522836,0 13.8746765,0.00531270234 13.991748,0.0212508094 C14.114141,0.0371889164 14.225891,0.0584397257 14.3376411,0.0796905351 C14.4440697,0.106254047 14.545177,0.132817558 14.6409627,0.164693773 C14.7367485,0.196569987 14.8112485,0.228446201 14.8644629,0.260322415 C14.9389629,0.302824033 14.9921772,0.345325652 15.0241058,0.393139973 C15.0560344,0.435641592 15.0719987,0.494081318 15.0719987,0.56845915 L15.0719987,0.81815616 C15.0719987,0.929722909 15.0294272,0.988162635 14.9496058,0.988162635 C14.9070343,0.988162635 14.8378557,0.966911826 14.7473914,0.924410207 C14.4440697,0.786279946 14.1034981,0.717214816 13.7256765,0.717214816 C13.4223548,0.717214816 13.1828904,0.765029137 13.017926,0.865970481 C12.8529616,0.966911826 12.7678187,1.12098019 12.7678187,1.33880099 C12.7678187,1.48755665 12.821033,1.61506151 12.9274617,1.71600286 C13.0338903,1.8169442 13.2307833,1.91788554 13.5128192,2.00820148 L14.2684625,2.24727309 C14.6516056,2.36946524 14.92832,2.53947172 15.0932844,2.75729251 C15.2582488,2.97511331 15.3380703,3.22481032 15.3380703,3.50107084 C15.3380703,3.72951704 15.2901774,3.93671243 15.1997131,4.11734431 C15.1039273,4.29797619 14.9762129,4.45735726 14.8112485,4.58486212 C14.6462842,4.71767968 14.4493912,4.81330832 14.2205696,4.88237345 C13.9811052,4.95675128 13.7309979,4.9939402 13.4596049,4.9939402 Z"/>
      <g fill="#F90" transform="translate(0 5.955)">
        <path d="M14.4653555,1.62078614 C12.7146044,2.91177281 10.17096,3.59711141 7.98385151,3.59711141 C4.91870678,3.59711141 2.15688366,2.46550582 0.0708823794,0.584809187 C-0.0940820073,0.436053521 0.0549180839,0.234170833 0.251811062,0.351050284 C2.50809816,1.65797506 5.291207,2.44956771 8.17010162,2.44956771 C10.1124242,2.44956771 12.2463184,2.04580233 14.2099267,1.21702077 C14.5026055,1.08420321 14.7527128,1.40827805 14.4653555,1.62078614 Z"/>
        <path d="M15.1943916,0.792004578 C14.9708915,0.505118652 13.7150336,0.653874317 13.1456404,0.722939448 C12.9753546,0.744190257 12.9487474,0.595434592 13.1030689,0.483867843 C14.1034981,-0.217408866 15.7478205,-0.0155261774 15.9393921,0.218232726 C16.1309636,0.457304331 15.8861778,2.09892935 14.9496058,2.8852093 C14.8059271,3.00740145 14.6675699,2.94364903 14.7314271,2.78426796 C14.9442843,2.25831042 15.4178918,1.0735778 15.1943916,0.792004578 Z"/>
      </g>
    </g>
  </g>
</svg>
