<svg xmlns="http://www.w3.org/2000/svg" width="24" height="24" viewBox="0 0 24 24">
  <g fill="none" fill-rule="evenodd">
    <circle cx="12" cy="12" r="12" fill="#F7F7F7"/>
    <g fill-rule="nonzero" transform="translate(5 6)">
      <path fill="#EA4335" d="M8.88352374,3.10649917 L9.31050848,3.10649917 L10.527415,1.88803495 L10.5871929,1.37072207 C9.16991075,0.118177295 7.20715472,-0.312810616 5.39644829,0.230922659 C3.58574187,0.774655935 2.18379493,2.21602352 1.68883087,4.04279272 C1.82439971,3.98715445 1.97457523,3.97813238 2.11581561,4.01714085 L4.54962863,3.61526142 C4.54962863,3.61526142 4.67345421,3.41004639 4.73750192,3.42287233 C5.82012293,2.23235442 7.64208004,2.09361093 8.89206344,3.10649917 L8.88352374,3.10649917 Z"/>
      <path fill="#4285F4" d="M12.260973,4.04279272 C11.9812611,3.01143032 11.4069647,2.08424767 10.6085421,1.37499738 L8.90060313,3.0851226 C9.62180797,3.67516923 10.0326162,4.56402909 10.0150333,5.49639916 L10.0150333,5.79994639 C10.8545424,5.79994639 11.535099,6.48137412 11.535099,7.32195783 C11.535099,8.16254154 10.8545424,8.84396928 10.0150333,8.84396928 L6.97490196,8.84396928 L6.67174279,9.15179182 L6.67174279,10.9773505 L6.97490196,11.2808977 L10.0150333,11.2808977 C11.7581301,11.294486 13.3044588,10.1634858 13.8216527,8.49669849 C14.3388466,6.82991117 13.7048658,5.0206412 12.260973,4.04279272 Z"/>
      <path fill="#34A853" d="M3.93050076,11.2637965 L6.97063211,11.2637965 L6.97063211,8.82686803 L3.93050076,8.82686803 C3.71390517,8.8268201 3.49984951,8.7801633 3.30283319,8.69005801 L2.87584845,8.82259271 L1.65040225,10.0410569 L1.54365606,10.4685882 C2.2308589,10.98817 3.06939147,11.267538 3.93050076,11.2637965 L3.93050076,11.2637965 Z"/>
      <path fill="#FBBC05" d="M3.93050076,3.35871744 C2.24181155,3.36884307 0.745929926,4.45170216 0.206995566,6.05416408 C-0.331938794,7.65662601 0.205051427,9.42492484 1.54365606,10.4557623 L3.30710304,8.69005801 C2.69097779,8.41133817 2.33275564,7.75866104 2.42806926,7.08846735 C2.52338288,6.41827366 3.04932111,5.8916622 3.71865802,5.79622657 C4.38799492,5.70079095 5.03983765,6.05947163 5.31820116,6.67638556 L7.08164814,4.91068127 C6.3313451,3.92854454 5.1654352,3.35433446 3.93050076,3.35871744 Z"/>
    </g>
  </g>
</svg>
